<svg width="48" height="48" viewBox="0 0 48 48" xmlns="http://www.w3.org/2000/svg">
<path d="M43.4999 16.6613V10.5C43.4999 9.70435 43.1839 8.94129 42.6213 8.37868C42.0587 7.81607 41.2956 7.5 40.4999 7.5H7.49994C6.70429 7.5 5.94123 7.81607 5.37862 8.37868C4.81601 8.94129 4.49994 9.70435 4.49994 10.5V34.5C4.49994 35.2956 4.81601 36.0587 5.37862 36.6213C5.94123 37.1839 6.70429 37.5 7.49994 37.5H28.4999V42C28.4998 42.2558 28.565 42.5074 28.6895 42.7309C28.8139 42.9544 28.9935 43.1424 29.2111 43.2769C29.4287 43.4114 29.6771 43.4881 29.9326 43.4996C30.1882 43.511 30.4424 43.457 30.6712 43.3425L35.9999 40.6763L41.3287 43.3425C41.5575 43.457 41.8117 43.511 42.0673 43.4996C42.3228 43.4881 42.5712 43.4114 42.7888 43.2769C43.0064 43.1424 43.1859 42.9544 43.3104 42.7309C43.4349 42.5074 43.5001 42.2558 43.4999 42V31.3387C45.4229 29.38 46.5002 26.7448 46.5002 24C46.5002 21.2552 45.4229 18.62 43.4999 16.6613ZM23.9999 27H13.4999C13.1021 27 12.7206 26.842 12.4393 26.5607C12.158 26.2794 11.9999 25.8978 11.9999 25.5C11.9999 25.1022 12.158 24.7206 12.4393 24.4393C12.7206 24.158 13.1021 24 13.4999 24H23.9999C24.3978 24 24.7793 24.158 25.0606 24.4393C25.3419 24.7206 25.4999 25.1022 25.4999 25.5C25.4999 25.8978 25.3419 26.2794 25.0606 26.5607C24.7793 26.842 24.3978 27 23.9999 27ZM23.9999 21H13.4999C13.1021 21 12.7206 20.842 12.4393 20.5607C12.158 20.2794 11.9999 19.8978 11.9999 19.5C11.9999 19.1022 12.158 18.7206 12.4393 18.4393C12.7206 18.158 13.1021 18 13.4999 18H23.9999C24.3978 18 24.7793 18.158 25.0606 18.4393C25.3419 18.7206 25.4999 19.1022 25.4999 19.5C25.4999 19.8978 25.3419 20.2794 25.0606 20.5607C24.7793 20.842 24.3978 21 23.9999 21ZM40.4999 39.5737L36.6712 37.6575C36.4628 37.5532 36.233 37.4989 35.9999 37.4989C35.7669 37.4989 35.5371 37.5532 35.3287 37.6575L31.4999 39.5737V33.4856C32.9061 34.1535 34.4433 34.5 35.9999 34.5C37.5566 34.5 39.0938 34.1535 40.4999 33.4856V39.5737ZM35.9999 31.5C34.5166 31.5 33.0665 31.0601 31.8332 30.236C30.5998 29.4119 29.6385 28.2406 29.0708 26.8701C28.5032 25.4997 28.3547 23.9917 28.6441 22.5368C28.9334 21.082 29.6477 19.7456 30.6966 18.6967C31.7455 17.6478 33.0819 16.9335 34.5368 16.6441C35.9916 16.3547 37.4996 16.5032 38.8701 17.0709C40.2405 17.6386 41.4119 18.5999 42.236 19.8332C43.0601 21.0666 43.4999 22.5166 43.4999 24C43.4999 25.9891 42.7098 27.8968 41.3032 29.3033C39.8967 30.7098 37.9891 31.5 35.9999 31.5Z"/>
</svg>
