<svg width="48" height="48" viewBox="0 0 48 48" fill="none" xmlns="http://www.w3.org/2000/svg">
<path d="M30.4 42.15L13.55 25.35C13.35 25.15 13.2087 24.9333 13.126 24.7C13.042 24.4667 13 24.2167 13 23.95C13 23.6833 13.042 23.4333 13.126 23.2C13.2087 22.9667 13.35 22.75 13.55 22.55L30.4 5.7C30.8667 5.23333 31.45 5 32.15 5C32.85 5 33.45 5.25 33.95 5.75C34.45 6.25 34.7 6.83333 34.7 7.5C34.7 8.16667 34.45 8.75 33.95 9.25L19.25 23.95L33.95 38.65C34.4167 39.1167 34.65 39.6913 34.65 40.374C34.65 41.058 34.4 41.65 33.9 42.15C33.4 42.65 32.8167 42.9 32.15 42.9C31.4833 42.9 30.9 42.65 30.4 42.15Z" fill="black"/>
</svg>
