<svg width="48" height="48" viewBox="0 0 48 48" fill="none" xmlns="http://www.w3.org/2000/svg">
<path d="M11.5552 10C11.1572 10.0001 10.7593 10.152 10.4556 10.4556C10.152 10.7593 10.0001 11.1572 10 11.5552C10.0001 11.9531 10.152 12.3519 10.4556 12.6555L21.8001 24L10.857 34.9431C10.2496 35.5505 10.2496 36.5355 10.857 37.143C11.4645 37.7504 12.4495 37.7504 13.0569 37.143L24 26.1999L34.9431 37.143C35.5505 37.7504 36.5355 37.7504 37.143 37.143C37.7504 36.5355 37.7504 35.5505 37.143 34.9431L26.1999 24L37.5444 12.6555C37.8481 12.3518 38 11.9537 38 11.5556C38 11.1575 37.8481 10.7594 37.5444 10.4556C37.2407 10.152 36.8423 10.0001 36.4443 10C36.0463 10.0001 35.6481 10.152 35.3445 10.4556L24 21.8001L12.6555 10.4556C12.3519 10.152 11.9531 10.0001 11.5552 10Z" fill="black"/>
</svg>
