<svg width="48" height="48" viewBox="0 0 48 48" xmlns="http://www.w3.org/2000/svg">
<path d="M41.151 5L32.8655 7.40966L36.2201 5.13903C34.1023 5.61757 31.4267 6.55363 28.064 8.06441L22.5753 13.7866L24.5234 9.78941C22.64 10.837 20.6434 12.2104 18.7196 13.819L17.4424 19.0166L17.1676 15.1689C15.268 16.9149 13.4815 18.8549 12.0023 20.9C10.4478 23.0421 9.23291 25.3055 8.62423 27.5607L6.35118 26.0411C6.55488 27.9568 7.18458 29.622 8.21763 31.1498L5.5 30.3172C6.11757 32.2168 7.12719 33.4454 8.8344 34.4397C7.87813 37.1315 7.4295 39.9445 6.94773 42.7494L8.43508 43C10.1601 25.8066 22.3328 14.8456 33.3343 9.98907L33.8921 11.394C24.0546 15.7994 16.4077 23.2361 12.4064 33.9547C13.8695 33.9628 15.3003 33.7849 16.626 33.4454L17.0221 28.5227L18.081 33.0089C18.9621 32.6856 19.7704 32.2976 20.4898 31.8449L18.8166 28.3287L21.4679 31.1417C22.1146 30.6243 22.6481 30.0423 23.0523 29.4037C25.5096 25.5641 28.0801 21.7488 33.1403 18.5558L29.4462 17.2463L35.1127 17.4161C36.0342 16.9472 37.0042 16.3733 37.7398 15.8317L33.7223 15.5084L39.7606 14.0857C40.2295 13.6169 40.666 13.1238 41.062 12.6307C42.4605 10.8572 43.4062 9.01098 43.1799 7.33206C43.0748 6.49219 42.5736 5.70245 41.7572 5.26028C41.5551 5.1552 41.3369 5.06224 41.151 5Z"/>
</svg>
