<svg width="48" height="48" viewBox="0 0 48 48"  xmlns="http://www.w3.org/2000/svg">
<path d="M23.9999 4C21.3735 4 18.7728 4.51732 16.3463 5.52241C13.9198 6.5275 11.715 8.00069 9.8578 9.85786C6.10708 13.6086 3.99994 18.6957 3.99994 24C3.99994 32.84 9.73994 40.34 17.6799 43C18.6799 43.16 18.9999 42.54 18.9999 42V38.62C13.4599 39.82 12.2799 35.94 12.2799 35.94C11.3599 33.62 10.0599 33 10.0599 33C8.23994 31.76 10.1999 31.8 10.1999 31.8C12.1999 31.94 13.2599 33.86 13.2599 33.86C14.9999 36.9 17.9399 36 19.0799 35.52C19.2599 34.22 19.7799 33.34 20.3399 32.84C15.8999 32.34 11.2399 30.62 11.2399 23C11.2399 20.78 11.9999 19 13.2999 17.58C13.0999 17.08 12.3999 15 13.4999 12.3C13.4999 12.3 15.1799 11.76 18.9999 14.34C20.5799 13.9 22.2999 13.68 23.9999 13.68C25.6999 13.68 27.4199 13.9 28.9999 14.34C32.8199 11.76 34.4999 12.3 34.4999 12.3C35.5999 15 34.8999 17.08 34.6999 17.58C35.9999 19 36.7599 20.78 36.7599 23C36.7599 30.64 32.0799 32.32 27.6199 32.82C28.3399 33.44 28.9999 34.66 28.9999 36.52V42C28.9999 42.54 29.3199 43.18 30.3399 43C38.2799 40.32 43.9999 32.84 43.9999 24C43.9999 21.3736 43.4826 18.7728 42.4775 16.3463C41.4724 13.9198 39.9992 11.715 38.1421 9.85786C36.2849 8.00069 34.0801 6.5275 31.6536 5.52241C29.2271 4.51732 26.6264 4 23.9999 4Z" />
</svg>
