<svg width="48" height="48" viewBox="0 0 48 48" xmlns="http://www.w3.org/2000/svg">
<path d="M26.1252 3.00095C25.8046 3.01159 25.4893 3.08556 25.1974 3.21861C24.9054 3.35165 24.6428 3.54114 24.4244 3.77615L14.8565 14.0201L8.0355 21.3225C7.04208 22.3803 6.30937 23.6554 5.89574 25.0463C5.8071 25.3451 5.73326 25.6482 5.67451 25.9543C5.40932 27.3393 5.44675 28.7654 5.78424 30.1347C5.93425 30.7524 6.14102 31.3549 6.40192 31.9346C6.94298 33.1389 7.70613 34.2305 8.65141 35.1522L16.2211 42.5732L16.2901 42.6405C20.2688 46.4722 26.6473 46.4156 30.5605 42.5095L34.8011 38.276C35.7568 37.3203 35.7568 35.7734 34.8064 34.8159C34.5802 34.5885 34.3114 34.408 34.0153 34.2846C33.7192 34.1612 33.4017 34.0975 33.081 34.097C32.7603 34.0965 32.4426 34.1593 32.1461 34.2817C31.8497 34.4042 31.5803 34.5839 31.3534 34.8106L27.1128 39.0441C26.1241 40.02 24.7944 40.5727 23.4053 40.5852C22.0162 40.5978 20.6767 40.0692 19.6706 39.1114L19.6352 39.0778L12.0672 31.6567C10.9133 30.524 10.3469 29.0568 10.3894 27.6516C10.3978 27.3399 10.437 27.0299 10.5062 26.7259C10.6841 25.9549 11.062 25.2444 11.6018 24.6658L18.421 17.3616C20.2935 15.3546 24.0917 15.1139 26.2615 16.8696L32.4578 21.88C33.5073 22.7296 35.0435 22.565 35.8913 21.5137C36.2977 21.0087 36.4873 20.3631 36.4187 19.7186C36.35 19.074 36.0286 18.4829 35.525 18.0748L29.3304 13.0644C27.9146 11.9193 26.2049 11.2149 24.4209 10.937L27.9871 7.11764C28.3159 6.76417 28.5328 6.32145 28.6108 5.84507C28.6887 5.36869 28.6242 4.8799 28.4253 4.44008C28.2264 4.00025 27.9019 3.62901 27.4927 3.37297C27.0835 3.11693 26.6078 2.98751 26.1252 3.00095ZM21.0528 25.6817C20.7318 25.6817 20.4139 25.745 20.1173 25.868C19.8208 25.9909 19.5514 26.1711 19.3245 26.3983C19.0977 26.6255 18.9178 26.8952 18.7953 27.1919C18.6728 27.4886 18.6099 27.8066 18.6104 28.1276C18.6099 28.4487 18.6728 28.7667 18.7953 29.0634C18.9178 29.3601 19.0977 29.6298 19.3245 29.857C19.5514 30.0841 19.8208 30.2644 20.1173 30.3873C20.4139 30.5103 20.7318 30.5736 21.0528 30.5736H39.0576C39.3786 30.5736 39.6965 30.5103 39.9931 30.3873C40.2896 30.2644 40.559 30.0841 40.7859 29.857C41.0127 29.6298 41.1926 29.3601 41.3151 29.0634C41.4376 28.7667 41.5005 28.4487 41.5 28.1276C41.5005 27.8066 41.4376 27.4886 41.3151 27.1919C41.1926 26.8952 41.0127 26.6255 40.7859 26.3983C40.559 26.1711 40.2896 25.9909 39.9931 25.868C39.6965 25.745 39.3786 25.6817 39.0576 25.6817H21.0528Z"/>
</svg>
