<svg width="48" height="48" viewBox="0 0 48 48" fill="none" xmlns="http://www.w3.org/2000/svg">
<path d="M5.5 8.5785C5.5 7.15425 6.6835 6 8.14375 6H38.8563C40.3165 6 41.5 7.15425 41.5 8.5785V39.4215C41.5 40.8457 40.3165 42 38.8563 42H8.14375C6.6835 42 5.5 40.8457 5.5 39.4215V8.5785ZM16.6217 36.1365V19.8802H11.2195V36.1365H16.6217ZM13.9218 17.6595C15.805 17.6595 16.9772 16.413 16.9772 14.8515C16.9435 13.2562 15.8073 12.0435 13.9578 12.0435C12.1083 12.0435 10.9 13.2585 10.9 14.8515C10.9 16.413 12.0722 17.6595 13.8857 17.6595H13.9218ZM24.9648 36.1365V27.0578C24.9648 26.5718 25.0007 26.0857 25.1448 25.7393C25.534 24.7695 26.4228 23.7638 27.9167 23.7638C29.872 23.7638 30.6528 25.2533 30.6528 27.4403V36.1365H36.055V26.8125C36.055 21.8175 33.391 19.4955 29.836 19.4955C26.9695 19.4955 25.6847 21.0705 24.9648 22.1798V22.236H24.9288C24.9407 22.2172 24.9527 22.1985 24.9648 22.1798V19.8802H19.5647C19.6322 21.4058 19.5647 36.1365 19.5647 36.1365H24.9648Z" fill="black"/>
</svg>
