<svg width="48" height="48" viewBox="0 0 48 48" fill="none" xmlns="http://www.w3.org/2000/svg">
<mask id="mask0_346_38" style="mask-type:luminance" maskUnits="userSpaceOnUse" x="4" y="4" width="40" height="40">
<path d="M44 4H4V44H44V4Z" fill="white"/>
</mask>
<g mask="url(#mask0_346_38)">
<path d="M23.5437 5.51244L7.24373 13.9156C6.88748 14.1249 6.78436 14.4374 6.78748 14.8906L6.81873 15.4562L24.0281 24.2812L41.1969 15.5968C41.1969 15.5968 41.2156 15.5093 41.2156 15.2031C41.2156 15.2031 41.2 14.7999 41.1094 14.6124C41.0094 14.3999 40.7969 14.2093 40.6594 14.0937C40.2937 13.7906 39.9281 13.5218 39.3062 13.1718C30.3906 8.13119 24.5281 5.53432 24.5281 5.53432C24.15 5.39369 23.8375 5.34369 23.5437 5.51244Z" fill="#DEA66C"/>
<path d="M7.04374 34.05C7.99374 34.6781 9.72811 35.5031 11.4812 36.4531C15.5562 38.6594 20.7062 41.3406 23.2687 42.3937C23.6156 42.5375 23.8218 42.6062 24.0625 42.6187C24.2406 42.6281 24.5343 42.5094 24.5343 42.5094C24.5343 42.5094 24.0562 25.2625 24.0281 24.2781C24 23.3156 23.5968 22.9969 23.2406 22.7656C22.6843 22.4094 21.4781 21.8531 21.4781 21.8531C21.4781 21.8531 17.2531 19.7531 13.0344 17.5406C11.0281 16.4875 9.33436 15.4094 7.51249 14.5219C7.17811 14.3625 6.78436 14.5625 6.78436 14.9375V33.625C6.78436 33.8031 6.89374 33.9531 7.04374 34.05Z" fill="#B38251"/>
<path d="M40.7438 34.1593L24.5688 42.4999C24.3094 42.6343 24 42.4468 24 42.153L24.0281 24.2843C24.0281 24.1124 23.975 23.7343 23.9219 23.5843C23.775 23.1468 24.0938 22.9718 24.2375 22.8999L40.2813 14.6374C40.7063 14.4186 41.2156 14.728 41.2156 15.2061V33.3905C41.2156 33.7124 41.0344 34.0093 40.7438 34.1593Z" fill="#966239"/>
<path opacity="0.5" d="M33.5187 18.8718C33.5187 18.8718 24.6531 23.4062 24.5094 23.7906C24.3656 24.1718 31.4656 20.7593 32.2969 20.3312C33.2375 19.8468 40.625 15.8969 40.625 15.4625C40.6281 15.1062 33.5187 18.8718 33.5187 18.8718Z" fill="#212121"/>
<g opacity="0.5">
<path d="M8.00317 33.0157C9.1563 33.5969 10.3 34.1969 11.725 34.9251V34.3688C10.3063 33.6438 9.15942 33.0469 8.00317 32.4594V33.0157ZM10.4313 33.2688C10.7563 33.4344 10.9188 33.5188 11.225 33.6751C11.2282 32.7063 11.2282 32.2219 11.2313 31.2532C10.925 31.0969 10.7657 31.0157 10.4438 30.8501C10.4375 31.8188 10.4344 32.3001 10.4313 33.2688ZM8.41255 32.2313C8.6813 32.3688 8.8313 32.4469 9.13755 32.6032L9.15317 30.1907C8.8438 30.0313 8.6938 29.9563 8.42192 29.8126C8.4188 30.7813 8.41567 31.2657 8.41255 32.2313Z" fill="#212121"/>
<path d="M9.92192 30.8719C10.6625 31.25 11.0563 31.4531 11.7094 31.7844C11.3844 31.1938 11.2063 30.8938 10.85 30.2875C10.4844 30.525 10.2938 30.6406 9.92192 30.8719ZM8.00317 29.8875C8.5563 30.175 8.92817 30.3656 9.65942 30.7406C9.29692 30.1313 9.11567 29.8281 8.7813 29.2313C8.44067 29.4781 8.2813 29.6063 8.00317 29.8875Z" fill="#212121"/>
</g>
<g opacity="0.5">
<path d="M13.9406 35.6875C14.2 35.8219 14.3344 35.8937 14.5938 36.0281C14.575 34.8781 14.5656 34.3031 14.5438 33.1531C14.2938 33.0219 14.1688 32.9562 13.9188 32.8281C13.9281 33.9719 13.9313 34.5438 13.9406 35.6875Z" fill="#212121"/>
<path d="M12.9875 35.4844C13.9375 35.9844 14.675 36.3594 15.5875 36.8469C15.5812 36.5187 15.3281 36.1219 14.9844 35.9375C14.4469 35.6531 14.1406 35.4969 13.5969 35.2125C13.2469 35.0344 12.9875 35.1625 12.9875 35.4844ZM14.7969 32.2375L15.1969 33.0844C15.0719 33.35 15.0062 33.4844 14.875 33.7469C14.9875 33.7375 15.0437 33.7344 15.1562 33.725C15.3062 33.525 15.3812 33.425 15.525 33.225C15.3937 32.9156 15.325 32.7594 15.1875 32.45C15.5687 32.6594 15.7562 32.7656 16.1031 32.9687C16.1031 34.0875 15.3719 34.5812 14.2719 34.0062C13.1719 33.4344 12.4437 32.1562 12.4437 31.0344C13.2625 31.4437 13.8125 31.7125 14.7969 32.2375Z" fill="#212121"/>
</g>
<path d="M35.4813 16.9656C35.325 16.85 18.5469 8.08435 18.5469 8.08435L13.3406 10.775L30.5438 19.6468L30.5531 19.6562L35.5875 17.0781C35.5875 17.0781 35.5781 17.0531 35.55 17.0218C35.5281 17.0031 35.4906 16.975 35.4813 16.9656Z" fill="#FFE0B2"/>
<path d="M35.5625 17.0406C32.7125 18.4438 30.5437 19.6469 30.5437 19.6469C30.6156 19.7188 30.6187 19.8125 30.6187 19.8594C30.6093 20.2219 30.6031 20.5094 30.5937 20.8688C30.55 22.7281 30.525 24.5906 30.4625 26.45C30.6718 26.325 30.925 26.6 31.1156 26.45C31.4093 26.2188 32.0343 25.2 32.1281 25.1688C32.2531 25.1281 32.3875 25.1594 32.5156 25.1532C33.0781 25.1219 34.3375 23.975 34.6062 23.9219C34.8656 23.8719 35.7218 24.0375 35.7218 24.0375C35.7218 24.0375 35.6625 18.3656 35.6406 17.4125C35.6343 17.075 35.5625 17.0406 35.5625 17.0406Z" fill="#BF9F85"/>
</g>
</svg>
