<svg width="48" height="48" viewBox="0 0 48 48" fill="none" xmlns="http://www.w3.org/2000/svg">
<path d="M43.35 21.0111C42.3693 20.349 39.7924 20.0662 37.919 20.5723C37.818 18.7006 36.8559 17.1234 35.0956 15.7472L34.444 15.3085L34.0097 15.9663C33.156 17.2661 32.7964 18.9977 32.9238 20.5718C33.0243 21.5416 33.3607 22.6318 34.0097 23.4228C31.5714 24.8414 29.324 24.5194 19.3707 24.5194H4.00345C3.95849 26.7736 4.31975 31.1101 7.06908 34.6402C7.37268 35.0301 7.7059 35.4073 8.06716 35.7707C10.3024 38.0159 13.6795 39.6621 18.7297 39.6669C26.434 39.6738 33.0349 35.497 37.05 25.3974C38.3712 25.4192 41.8589 25.6351 43.5658 22.3267C43.6075 22.271 44 21.4493 44 21.4493L43.3494 21.0105L43.35 21.0111ZM14.0323 18.9494H9.71105V23.2838H14.0323V18.9494ZM19.6151 18.9494H15.2938V23.2838H19.6151V18.9494ZM25.1979 18.9494H20.8766V23.2838H25.1979V18.9494ZM30.7807 18.9494H26.4594V23.2838H30.7807V18.9494ZM8.44957 18.9494H4.12828V23.2838H8.44957V18.9494ZM14.0323 13.475H9.71105V17.8094H14.0323V13.475ZM19.6151 13.475H15.2938V17.8094H19.6151V13.475ZM25.1979 13.475H20.8766V17.8094H25.1979V13.475ZM25.1979 8H20.8766V12.3344H25.1979V8Z" fill="#1D63ED"/>
</svg>
