<svg width="48" height="48" viewBox="0 0 48 48" fill="none" xmlns="http://www.w3.org/2000/svg">
<path d="M39.7981 30.1314C39.7981 30.1314 39.7456 29.8094 39.715 29.8123L33.8723 30.376C33.4074 30.4209 33.0463 30.7917 33.0137 31.2575L32.8532 33.5581L28.333 33.8806L28.0255 31.7956C27.9571 31.3318 27.5521 30.9822 27.0833 30.9822H20.9167C20.4481 30.9822 20.0431 31.3318 19.9746 31.7956L19.667 33.8806L15.1468 33.5581L14.9863 31.2575C14.9537 30.7915 14.5926 30.4207 14.1277 30.3758L8.28211 29.8123C8.25191 29.8094 8.22979 30.1317 8.1996 30.1317L8.19168 31.3961L13.1424 32.1944L13.3045 34.5156C13.3373 34.9855 13.7164 35.3654 14.1866 35.3992L20.4119 35.8432C20.4355 35.8449 20.4587 35.8458 20.482 35.8458C20.9498 35.8458 21.3541 35.4961 21.4226 35.0323L21.7389 32.8869H26.2612L26.5775 35.0323C26.6458 35.4959 27.0507 35.8457 27.5191 35.8457C27.5421 35.8457 27.565 35.8449 27.5874 35.8432L33.8135 35.3992C34.2836 35.3654 34.6629 34.9855 34.6957 34.5156L34.8576 32.1944L39.8062 31.3925L39.7981 30.1314Z" fill="white"/>
<path d="M8.19953 20.5974V28.27V29.2446V30.1314C8.21697 30.1316 8.23441 30.1322 8.25169 30.1338L14.0966 30.6974C14.4028 30.7269 14.6428 30.9734 14.6641 31.2802L14.8443 33.8603L19.9429 34.2241L20.2941 31.8428C20.3396 31.534 20.6045 31.3052 20.9168 31.3052H27.0834C27.3955 31.3052 27.6604 31.534 27.7059 31.8428L28.0571 34.2241L33.1559 33.8603L33.3359 31.2802C33.3574 30.9734 33.5972 30.7271 33.9034 30.6974L39.7461 30.1338C39.7633 30.1322 39.7806 30.1316 39.7981 30.1314V29.3707L39.8005 29.3699V20.5974H39.8221C40.5964 19.6092 41.3129 18.5678 42 17.4568C41.0875 15.9034 39.9694 14.5151 38.7743 13.2289C37.6659 13.7869 36.5893 14.4189 35.5724 15.0915C35.0636 14.5857 34.4905 14.172 33.9276 13.7395C33.3745 13.2953 32.7512 12.9696 32.16 12.5901C32.336 11.2794 32.4231 9.98901 32.4581 8.64226C30.9328 7.87458 29.3062 7.3656 27.6608 7.00001C27.0039 8.10405 26.4032 9.29965 25.88 10.4684C25.2596 10.3648 24.6363 10.3263 24.0122 10.3189V10.3179C24.0078 10.3179 24.0038 10.3189 24.0001 10.3189C23.9962 10.3189 23.9922 10.3179 23.9883 10.3179V10.3189C23.363 10.3263 22.7402 10.3648 22.1196 10.4684C21.5968 9.29965 20.9964 8.10405 20.3385 7.00001C18.694 7.3656 17.0672 7.87458 15.5421 8.64226C15.5769 9.98901 15.664 11.2794 15.8405 12.5901C15.2482 12.9696 14.6256 13.2953 14.0724 13.7395C13.5103 14.172 12.9362 14.5857 12.4273 15.0915C11.4104 14.4189 10.3341 13.7869 9.22541 13.2289C8.0303 14.5151 6.91285 15.9034 6 17.4568C6.68678 18.5678 7.40375 19.6092 8.17789 20.5974H8.19953Z" fill="#478CBF"/>
<path d="M34.5545 31.8992L34.3735 34.4931C34.3517 34.8057 34.103 35.0545 33.7904 35.077L27.5645 35.5212C27.5493 35.5223 27.5341 35.5228 27.5191 35.5228C27.2097 35.5228 26.9428 35.2958 26.8971 34.9851L26.5401 32.5639H21.46L21.103 34.9851C21.055 35.311 20.7637 35.5453 20.4356 35.5212L14.2097 35.077C13.8971 35.0545 13.6484 34.8057 13.6266 34.4931L13.4456 31.8992L8.18988 31.3925C8.1923 31.9573 8.19957 32.5761 8.19957 32.6994C8.19957 38.2501 15.2409 40.918 23.9893 40.9487H24H24.0108C32.7592 40.918 39.7981 38.2501 39.7981 32.6994C39.7981 32.5739 39.8057 31.9577 39.8083 31.3925L34.5545 31.8992Z" fill="#478CBF"/>
<path d="M19.2368 24.4677C19.2368 26.4138 17.6599 27.9904 15.7144 27.9904C13.7699 27.9904 12.1925 26.4138 12.1925 24.4677C12.1925 22.5228 13.7699 20.9471 15.7144 20.9471C17.6599 20.9471 19.2368 22.5228 19.2368 24.4677Z" fill="white"/>
<path d="M18.3892 24.6767C18.3892 25.9676 17.343 27.0138 16.0512 27.0138C14.76 27.0138 13.7131 25.9676 13.7131 24.6767C13.7131 23.3858 14.76 22.3386 16.0512 22.3386C17.343 22.3386 18.3892 23.3858 18.3892 24.6767Z" fill="#414042"/>
<path d="M23.9998 28.3109C23.3735 28.3109 22.866 27.8494 22.866 27.2805V24.0378C22.866 23.4694 23.3735 23.0074 23.9998 23.0074C24.626 23.0074 25.1346 23.4694 25.1346 24.0378V27.2805C25.1346 27.8494 24.626 28.3109 23.9998 28.3109Z" fill="white"/>
<path d="M28.7633 24.4677C28.7633 26.4138 30.3401 27.9904 32.286 27.9904C34.2304 27.9904 35.8075 26.4138 35.8075 24.4677C35.8075 22.5228 34.2304 20.9471 32.286 20.9471C30.3401 20.9471 28.7633 22.5228 28.7633 24.4677Z" fill="white"/>
<path d="M29.6111 24.6767C29.6111 25.9676 30.657 27.0138 31.9478 27.0138C33.24 27.0138 34.2859 25.9676 34.2859 24.6767C34.2859 23.3858 33.24 22.3386 31.9478 22.3386C30.657 22.3386 29.6111 23.3858 29.6111 24.6767Z" fill="#414042"/>
</svg>
