<svg width="48" height="48" viewBox="0 0 48 48" fill="none" xmlns="http://www.w3.org/2000/svg">
<path d="M24.6312 0L41.7414 9.73384V18.6312L31.4753 12.6236V17.1103L36.5703 20.076L36.6464 27.7567L31.4753 24.7909V36.0456L24.6312 40V0ZM23.1103 0V40L16.2662 36.0456V12.6236L6 18.6312V9.73384L23.1103 0Z" fill="url(#paint0_linear_131_9)"/>
<path fill-rule="evenodd" clip-rule="evenodd" d="M37 48C41.9706 48 46 43.9706 46 39C46 34.0294 41.9706 30 37 30C32.0294 30 28 34.0294 28 39C28 43.9706 32.0294 48 37 48ZM35.1914 35H33.9883V40.6719C33.9883 40.9766 33.9414 41.2344 33.8477 41.4453C33.7539 41.6562 33.6172 41.8164 33.4375 41.9258C33.2604 42.0326 33.0443 42.0859 32.7891 42.0859C32.5547 42.0859 32.3464 42.0417 32.1641 41.9531C31.9844 41.862 31.8424 41.7357 31.7383 41.5742C31.6367 41.4128 31.5859 41.2214 31.5859 41H30.3867C30.3867 41.4505 30.4896 41.8333 30.6953 42.1484C30.9036 42.4609 31.1862 42.6992 31.543 42.8633C31.9023 43.0273 32.3073 43.1094 32.7578 43.1094C33.2474 43.1094 33.6745 43.0143 34.0391 42.8242C34.4036 42.6315 34.6862 42.3529 34.8867 41.9883C35.0898 41.6237 35.1914 41.1849 35.1914 40.6719V35ZM40.7959 36.2422C41.098 36.4453 41.2699 36.7318 41.3115 37.1016H42.4756C42.4652 36.6719 42.3402 36.2917 42.1006 35.9609C41.861 35.6276 41.5329 35.3659 41.1162 35.1758C40.7021 34.9857 40.2243 34.8906 39.6826 34.8906C39.1462 34.8906 38.6644 34.987 38.2373 35.1797C37.8102 35.3698 37.4717 35.6367 37.2217 35.9805C36.9717 36.3242 36.8467 36.7266 36.8467 37.1875C36.8467 37.7448 37.0329 38.1927 37.4053 38.5312C37.7803 38.8698 38.2881 39.1263 38.9287 39.3008L39.874 39.5586C40.1605 39.6341 40.417 39.7214 40.6436 39.8203C40.8727 39.9193 41.0537 40.0443 41.1865 40.1953C41.3219 40.3464 41.3896 40.5404 41.3896 40.7773C41.3896 41.0378 41.3128 41.2656 41.1592 41.4609C41.0055 41.6536 40.7946 41.8047 40.5264 41.9141C40.2607 42.0208 39.9574 42.0742 39.6162 42.0742C39.3063 42.0742 39.0212 42.0286 38.7607 41.9375C38.5029 41.8438 38.2907 41.7018 38.124 41.5117C37.96 41.319 37.8662 41.0781 37.8428 40.7891H36.6318C36.6579 41.2708 36.7946 41.6875 37.042 42.0391C37.2894 42.388 37.6318 42.6576 38.0693 42.8477C38.5068 43.0378 39.0251 43.1328 39.624 43.1328C40.249 43.1328 40.7816 43.0312 41.2217 42.8281C41.6644 42.625 42.0016 42.3477 42.2334 41.9961C42.4678 41.6445 42.585 41.2422 42.585 40.7891C42.585 40.4297 42.5133 40.1211 42.3701 39.8633C42.2295 39.6055 42.0446 39.3893 41.8154 39.2148C41.5863 39.0404 41.3376 38.8997 41.0693 38.793C40.8011 38.6862 40.5394 38.6016 40.2842 38.5391L39.5029 38.3359C39.3467 38.2969 39.1839 38.2474 39.0146 38.1875C38.8454 38.125 38.6865 38.0482 38.5381 37.957C38.3923 37.8633 38.2738 37.7474 38.1826 37.6094C38.0941 37.4714 38.0498 37.3073 38.0498 37.1172C38.0498 36.8906 38.1149 36.6888 38.2451 36.5117C38.3779 36.332 38.5641 36.1914 38.8037 36.0898C39.0433 35.9857 39.3271 35.9336 39.6553 35.9336C40.1136 35.9336 40.4938 36.0365 40.7959 36.2422Z" fill="#425066"/>
<defs>
<linearGradient id="paint0_linear_131_9" x1="6" y1="2000" x2="3580.14" y2="2000" gradientUnits="userSpaceOnUse">
<stop stop-color="#FF6F00"/>
<stop offset="1" stop-color="#FFA800"/>
</linearGradient>
</defs>
</svg>
