<svg width="48" height="48" viewBox="0 0 48 48" fill="none" xmlns="http://www.w3.org/2000/svg">
<path d="M26.385 35H41.0925C41.5618 35 42.0111 34.8351 42.4175 34.6025C42.824 34.3699 43.2429 34.0779 43.4775 33.675C43.7121 33.2721 43.8752 32.815 43.875 32.3499C43.8748 31.8847 43.7124 31.4278 43.4775 31.0251L33.54 13.9325C33.3054 13.5297 33.0188 13.2376 32.6125 13.005C32.2061 12.7725 31.6242 12.6075 31.155 12.6075C30.6858 12.6075 30.2363 12.7725 29.83 13.005C29.4236 13.2376 29.137 13.5297 28.9025 13.9325L26.385 18.305L21.35 9.82469C21.1152 9.42194 20.829 8.99753 20.4225 8.76503C20.016 8.53244 19.5668 8.5 19.0975 8.5C18.6282 8.5 18.179 8.53244 17.7725 8.76503C17.3661 8.99753 16.9473 9.42194 16.7125 9.82469L4.39 31.0251C4.15508 31.4278 4.12521 31.8847 4.125 32.3499C4.12479 32.815 4.15543 33.272 4.39 33.675C4.62458 34.0778 5.04355 34.3699 5.45 34.6025C5.85645 34.8351 6.30565 35 6.775 35H16.05C19.7251 35 22.4001 33.3514 24.265 30.23L28.77 22.4125L31.155 18.305L38.4425 30.76H28.77L26.385 35ZM15.9175 30.76H9.42497L19.0975 14.065L24 22.4125L20.7526 28.0735C19.5142 30.0988 18.1021 30.76 15.9175 30.76Z" fill="#00DC82"/>
</svg>
