<svg width="48" height="48" viewBox="0 0 48 48" fill="none" xmlns="http://www.w3.org/2000/svg">
<mask id="mask0_346_2" style="mask-type:luminance" maskUnits="userSpaceOnUse" x="6" y="6" width="36" height="36">
<path d="M42 6H6V42H42V6Z" fill="white"/>
</mask>
<g mask="url(#mask0_346_2)">
<path d="M38.7993 40.9481H9.18372C8.01654 40.9481 7.06873 40.0003 7.06873 38.8331V9.21748C7.06873 8.05029 8.01654 7.10248 9.18372 7.10248H38.7993C39.9665 7.10248 40.9143 8.05029 40.9143 9.21748V38.8331C40.9171 40.0003 39.9693 40.9481 38.7993 40.9481Z" fill="url(#paint0_radial_346_2)"/>
<path d="M40.1156 23.5472H34.7718V29.6953H22.9284V11.2988H14.0578V29.6953H12.7978V19.8178H9.47058V31.8131H12.1425V38.9681H39.4603V35.8434H40.1156V23.5472Z" fill="#A47FCD"/>
<path d="M15.1153 13.0677H15.7819V15.2024H15.1153V13.0677ZM16.5356 13.0677H17.2303V15.2024H16.5356V13.0677ZM18.7322 13.0677H18.0515V15.2024L18.7153 15.1968L18.7322 13.0677Z" fill="#3F737B"/>
<path d="M20.1862 13.0677L19.455 13.0706L19.4746 15.2024H20.1806L20.1862 13.0677Z" fill="#A363B0"/>
<path d="M15.1153 13.0677H15.7819V15.2024H15.1153V13.0677ZM16.5356 13.0677H17.2303V15.2024H16.5356V13.0677ZM18.7434 13.0677H18.0515V15.2024L18.735 15.1968L18.7434 13.0677Z" fill="#FDE064"/>
<path d="M20.1862 16.4427L19.455 16.4456L19.4746 18.5775H20.1806L20.1862 16.4427Z" fill="#A463B0"/>
<path d="M15.1153 16.4427H15.7819V18.5775H15.1153V16.4427Z" fill="#FDE064"/>
<path d="M16.5356 16.4427H17.2303V18.5775H16.5356V16.4427ZM18.7434 16.4427H18.0515V18.5775L18.735 18.5718L18.7434 16.4427ZM15.1153 19.8178H15.7819V21.9525H15.1153V19.8178ZM16.5356 19.8178H17.2303V21.9525H16.5356V19.8178ZM18.7434 19.8178H18.0515V21.9525L18.735 21.9468L18.7434 19.8178Z" fill="#A463B0"/>
<path d="M21.0075 13.0677L21.0047 15.2024H21.7247V13.0677H21.0075Z" fill="#A363B0"/>
<path d="M35.6859 28.8375H36.4959V29.9457H35.6859V28.8375ZM37.3031 28.8375H38.1131V29.9457H37.3031V28.8375Z" fill="#A463B0"/>
<path d="M35.6859 26.7647H36.4959V27.8728H35.6859V26.7647Z" fill="#FDE064"/>
<path d="M37.3031 26.7647H38.1131V27.8728H37.3031V26.7647Z" fill="#A463B0"/>
<path d="M35.6859 24.796H36.4959V25.9041H35.6859V24.796ZM37.3031 24.796H38.1131V25.9041H37.3031V24.796Z" fill="#FDE064"/>
<path d="M38.3437 19.8938C38.2425 20.0991 38.3437 31.9031 38.3437 31.9031H33.8803V25.1531H32.4431V22.996H31.169V21.165H28.874V23.0888H27.4143V25.1053H25.9068V34.935H24.4893V23.9663H25.1503V21.8738H24.4893V17.5397H23.744L22.7287 14.4009H20.729L19.725 17.5397H18.9403V21.8738H18.2428V23.9663H18.9403V34.935H16.9209V25.0772H10.8347V14.0072C10.8347 14.0072 7.07998 13.9819 7.06873 13.9931V38.8331C7.06873 40.0003 8.01654 40.9481 9.18372 40.9481H38.7993C39.9665 40.9481 40.9143 40.0003 40.9143 38.8331V19.8938H38.3437Z" fill="url(#paint1_radial_346_2)"/>
<path d="M7.6059 38.6841H16.035V39.345H7.6059V38.6841ZM7.6059 36.3356H16.035V36.9966H7.6059V36.3356Z" fill="#A463B0"/>
<path d="M7.6059 33.9028H16.035V34.5638H7.6059V33.9028ZM7.6059 31.5544H16.035V32.2153H7.6059V31.5544ZM7.6059 28.8403H16.035V29.5013H7.6059V28.8403ZM7.6059 26.4919H16.035V27.1528H7.6059V26.4919Z" fill="#FDE064"/>
<path d="M7.6059 23.8087H8.1009V24.8493H7.6059V23.8087Z" fill="#A463B0"/>
<path d="M9.2934 23.8087H9.7884V24.8494H9.2934V23.8087ZM7.6059 21.7191H8.1009V22.7597H7.6059V21.7191ZM9.2934 21.7191H9.7884V22.7597H9.2934V21.7191ZM7.6059 19.6294H8.1009V20.67H7.6059V19.6294ZM9.2934 19.6294H9.7884V20.67H9.2934V19.6294ZM7.6059 17.5397H8.1009V18.5803H7.6059V17.5397ZM9.2934 17.5397H9.7884V18.5803H9.2934V17.5397ZM7.6059 15.4472H8.1009V16.4878H7.6059V15.4472Z" fill="#FDE064"/>
<path d="M9.29346 15.4472H9.78846V16.4878H9.29346V15.4472Z" fill="#A463B0"/>
<path d="M20.0062 24.1434H20.6447V25.4822H20.0062V24.1434ZM21.5194 24.1434H22.1578V25.4822H21.5194V24.1434ZM22.9762 24.1434H23.6147V25.4822H22.9762V24.1434ZM20.0062 26.6747H20.6447V28.0134H20.0062V26.6747ZM20.0062 33.4781H20.6447V34.8169H20.0062V33.4781Z" fill="#FDE064"/>
<path d="M21.5193 33.4781H22.1578V34.8169H21.5193V33.4781ZM22.9762 33.4781H23.6147V34.8169H22.9762V33.4781ZM21.5193 26.6747H22.1578V28.0134H21.5193V26.6747Z" fill="#A463B0"/>
<path d="M22.9762 26.6747H23.6146V28.0134H22.9762V26.6747Z" fill="#FDE064"/>
<path d="M20.0062 29.2059H20.6447V30.5447H20.0062V29.2059Z" fill="#A463B0"/>
<path d="M21.5193 29.2059H22.1578V30.5447H21.5193V29.2059ZM22.9762 29.2059H23.6147V30.5447H22.9762V29.2059Z" fill="#FDE064"/>
<path d="M21.1903 21.1763H22.5009V19.23C22.5009 19.23 22.5487 18.4988 21.84 18.4819C21.1734 18.465 21.165 19.2132 21.165 19.2132C21.165 19.2132 21.2072 21.1763 21.1903 21.1763Z" fill="#A463B0"/>
<path d="M28.4578 24.045H29.0963V26.7703H28.4578V24.045ZM30.8513 24.045H31.4897V26.7703H30.8513V24.045ZM29.6672 24.045H30.3056V26.7703H29.6672V24.045ZM27.4791 27.8194H28.1175V28.6884H27.4791V27.8194ZM29.6784 27.8194H30.3169V28.6884H29.6784V27.8194ZM31.8778 27.8194H32.5163V28.6884H31.8778V27.8194Z" fill="#FDE064"/>
<path d="M27.4791 30.6319H28.1175V31.501H27.4791V30.6319Z" fill="#A463B0"/>
<path d="M29.6784 30.6319H30.3169V31.501H29.6784V30.6319ZM31.8778 30.6319H32.5163V31.501H31.8778V30.6319ZM27.4791 33.2897H28.1175V34.1588H27.4791V33.2897ZM29.6784 33.2897H30.3169V34.1588H29.6784V33.2897ZM31.8778 33.2897H32.5163V34.1588H31.8778V33.2897Z" fill="#FDE064"/>
<path d="M27.4791 36.1022H28.1175V36.9712H27.4791V36.1022Z" fill="#A463B0"/>
<path d="M29.6784 36.1022H30.3168V36.9712H29.6784V36.1022Z" fill="#FDE064"/>
<path d="M31.8778 36.1022H32.5163V36.9712H31.8778V36.1022ZM27.4791 38.7656H28.1175V39.6347H27.4791V38.7656ZM29.6784 38.7656H30.3169V39.6347H29.6784V38.7656ZM31.8778 38.7656H32.5163V39.6347H31.8778V38.7656Z" fill="#A463B0"/>
</g>
<defs>
<radialGradient id="paint0_radial_346_2" cx="0" cy="0" r="1" gradientUnits="userSpaceOnUse" gradientTransform="translate(24.6269 44.5928) scale(37.9352 37.9353)">
<stop offset="0.408" stop-color="#F4704F"/>
<stop offset="0.463" stop-color="#EF6F55"/>
<stop offset="0.536" stop-color="#E16D66"/>
<stop offset="0.621" stop-color="#CA6982"/>
<stop offset="0.713" stop-color="#A964A9"/>
<stop offset="0.727" stop-color="#A463B0"/>
<stop offset="0.772" stop-color="#9361B0"/>
<stop offset="0.861" stop-color="#655CAF"/>
<stop offset="0.944" stop-color="#3657AE"/>
</radialGradient>
<radialGradient id="paint1_radial_346_2" cx="0" cy="0" r="1" gradientUnits="userSpaceOnUse" gradientTransform="translate(22.0282 12.5472) scale(28.2358)">
<stop offset="0.46" stop-color="#513076"/>
<stop offset="0.951" stop-color="#412769"/>
</radialGradient>
</defs>
</svg>
