<svg width="48" height="48" viewBox="0 0 48 48" fill="none" xmlns="http://www.w3.org/2000/svg">
<path d="M30.4095 19.0909C30.4095 20.9845 28.8674 22.5195 26.9653 22.5195C25.063 22.5195 23.5211 20.9845 23.5211 19.0909C23.5211 17.1974 25.063 15.6624 26.9653 15.6624C28.8674 15.6624 30.4095 17.1974 30.4095 19.0909Z" fill="#FFC131"/>
<path d="M21.1728 25.4805C19.2706 25.4805 17.7286 27.0155 17.7286 28.9091C17.7286 30.8026 19.2706 32.3376 21.1728 32.3376C23.075 32.3376 24.617 30.8026 24.617 28.9091C24.617 27.0155 23.075 25.4805 21.1728 25.4805Z" fill="#24C8DB"/>
<path fill-rule="evenodd" clip-rule="evenodd" d="M34.1034 30.0854C32.7135 30.9796 31.1735 31.6003 29.5663 31.9233C29.8952 30.979 30.074 29.9648 30.074 28.9091C30.074 28.5262 30.0505 28.1487 30.0048 27.7781C30.6963 27.5383 31.3601 27.2165 31.9813 26.8169C33.4759 25.8552 34.6598 24.4843 35.3907 22.8692C36.1217 21.254 36.3685 19.463 36.1016 17.7115C35.8349 15.96 35.0656 14.3224 33.8864 12.9956C32.7072 11.6687 31.1683 10.7091 29.4544 10.2319C27.7406 9.75469 25.9247 9.78028 24.2252 10.3056C22.5256 10.8309 21.0146 11.8335 19.8736 13.193C19.7274 13.3672 19.5882 13.5462 19.4559 13.7298C17.6952 13.9245 15.9899 14.4205 14.4129 15.1879C14.9262 13.552 15.7596 12.0248 16.8733 10.6978C18.497 8.76308 20.6473 7.33625 23.066 6.58872C25.4846 5.84119 28.0686 5.80478 30.5075 6.48386C32.9464 7.16293 35.1365 8.5286 36.8146 10.4168C38.4927 12.305 39.5873 14.6353 39.9671 17.1279C40.3469 19.6204 39.9954 22.1691 38.9553 24.4677C37.9151 26.7662 36.2303 28.7169 34.1034 30.0854ZM14.5695 17.5753L17.7933 17.9695C17.87 17.3475 18.01 16.7379 18.2094 16.1497C16.9308 16.4418 15.7038 16.9226 14.5695 17.5753Z" fill="#FFC131"/>
<path fill-rule="evenodd" clip-rule="evenodd" d="M14.0124 17.9146C15.4127 17.0137 16.9654 16.3904 18.5857 16.0696C18.2194 17.0598 18.0194 18.1301 18.0194 19.2468C18.0194 19.5808 18.0373 19.9107 18.0722 20.2355C17.3947 20.4738 16.744 20.7911 16.1345 21.1833C14.6399 22.1449 13.456 23.5157 12.725 25.1308C11.9941 26.746 11.7472 28.537 12.0141 30.2885C12.2809 32.04 13.0502 33.6776 14.2293 35.0045C15.4085 36.3314 16.9475 37.291 18.6613 37.7682C20.3752 38.2453 22.191 38.2197 23.8905 37.6945C25.5902 37.1692 27.1012 36.1665 28.2422 34.807C28.389 34.632 28.529 34.452 28.6617 34.2675C30.4239 34.0697 32.1299 33.5704 33.7068 32.7993C33.194 34.44 32.3591 35.9718 31.2425 37.3023C29.6188 39.2369 27.4685 40.6638 25.0497 41.4112C22.6312 42.1588 20.0472 42.1953 17.6082 41.5161C15.1693 40.8371 12.9793 39.4715 11.3012 37.5833C9.62313 35.695 8.52846 33.3647 8.1487 30.8721C7.76894 28.3796 8.12025 25.8309 9.16043 23.5324C10.2006 21.2338 11.8854 19.2831 14.0124 17.9146Z" fill="#24C8DB"/>
</svg>
