<svg width="48" height="48" viewBox="0 0 48 48" fill="none" xmlns="http://www.w3.org/2000/svg">
<g clip-path="url(#clip0_380_2)">
<mask id="mask0_380_2" style="mask-type:luminance" maskUnits="userSpaceOnUse" x="0" y="0" width="48" height="48">
<path d="M0 0.000427246H47.8863V47.8867H0V0.000427246Z" fill="white"/>
</mask>
<g mask="url(#mask0_380_2)">
<path d="M47.8863 0.000427246H0V47.8867H47.8863V0.000427246Z" fill="none"/>
<path d="M23.9444 7.22953C17.0728 7.22953 11.5036 12.8 11.5036 19.6704C11.5036 19.8042 11.4998 19.5365 11.5036 19.6704L11.5124 36.4426C11.5794 38.7516 13.4716 40.6034 15.797 40.6034C18.1225 40.6034 20.0324 38.7516 20.0994 36.4426V32.0304H23.9432C30.8147 32.0304 36.3853 26.5407 36.3853 19.6691C36.3853 12.7975 30.8147 7.22827 23.9444 7.22827V7.22953ZM20.1019 23.4421V19.6704C20.1019 17.5558 21.8299 15.8417 23.9444 15.8417C26.0589 15.8417 27.773 17.5558 27.773 19.6704C27.773 21.7849 26.0589 23.4421 23.9444 23.4421L20.0994 23.4447L20.1019 23.4421Z" fill="#E72264"/>
<path opacity="0.15" d="M15.6935 32.0316H20.0968V36.4438H20.0766C20.0097 38.7529 18.1187 40.6047 15.7945 40.6047C13.4703 40.6047 11.5781 38.7529 11.5112 36.4438H11.5099V36.3882C11.5099 36.3655 11.5086 36.3415 11.5086 36.3188C11.5086 36.296 11.5099 36.2733 11.5099 36.2506V35.9398C11.6413 33.8746 13.5916 32.0329 15.6922 32.0329L15.6935 32.0316Z" fill="#1D1D1B"/>
<g opacity="0.75">
<g opacity="0.05">
<path opacity="0.5" d="M11.5162 26.725V32.0303C11.5162 27.3566 15.4434 23.5103 20.1044 23.4459V21.7545C16.6383 22.1196 13.5714 23.984 11.5162 26.7263V26.725Z" fill="black"/>
<path d="M11.5225 36.0219C12.5343 35.2792 13.7621 34.8421 15.0884 34.8421H20.1057V32.0303H15.8072C13.536 32.0303 11.6804 33.7924 11.5225 36.0219Z" fill="black"/>
</g>
<g opacity="0.05">
<path opacity="0.5" d="M20.1057 23.4459V21.9086C16.6118 22.2509 13.5284 24.1571 11.5175 26.9562V32.0303C11.5175 27.3566 15.4446 23.5103 20.1057 23.4459Z" fill="black"/>
<path d="M15.8072 32.0303C13.5979 32.0303 11.7802 33.6977 11.539 35.8438C12.5495 35.0543 13.7987 34.587 15.1541 34.587H20.1057V32.0303H15.8072Z" fill="black"/>
</g>
<g opacity="0.05">
<path opacity="0.5" d="M20.1057 23.4459V22.064C16.5802 22.3835 13.4779 24.3364 11.5175 27.1974V32.0303C11.5175 27.3566 15.4446 23.5103 20.1057 23.4459Z" fill="black"/>
<path d="M15.8072 32.0303C13.6598 32.0303 11.8825 33.6054 11.5629 35.6631C12.5684 34.8294 13.8379 34.3305 15.2198 34.3305H20.1057V32.0303H15.8072Z" fill="black"/>
</g>
<g opacity="0.05">
<path opacity="0.5" d="M20.1057 23.4459V22.2194C16.5436 22.5137 13.4198 24.5196 11.5175 27.4514V32.0316C11.5175 27.3579 15.4446 23.5116 20.1057 23.4472V23.4459Z" fill="black"/>
<path d="M15.8072 32.0303C13.7217 32.0303 11.9836 33.5171 11.5933 35.4876C12.5899 34.6072 13.8771 34.0754 15.2842 34.0754H20.1044V32.0303H15.8059H15.8072Z" fill="black"/>
</g>
<g opacity="0.05">
<path opacity="0.5" d="M20.1057 23.4459V22.376C16.5019 22.6438 13.3541 24.7116 11.5175 27.7204V32.0316C11.5175 27.3579 15.4446 23.5116 20.1057 23.4471V23.4459Z" fill="black"/>
<path d="M15.8072 32.0303C13.7836 32.0303 12.0897 33.4286 11.6324 35.3107C12.6164 34.3848 13.9187 33.8189 15.3499 33.8189H20.1057V32.0291H15.8072V32.0303Z" fill="black"/>
</g>
<g opacity="0.05">
<path opacity="0.5" d="M20.1057 23.4459V22.5326C16.4552 22.7713 13.2771 24.9111 11.5175 28.0059V32.0303C11.5175 27.3566 15.4446 23.5103 20.1057 23.4459Z" fill="black"/>
<path d="M15.8072 32.0303C13.848 32.0303 12.1971 33.3414 11.6804 35.1339C12.6468 34.1625 13.963 33.5637 15.4156 33.5637H20.1057V32.0303H15.8072Z" fill="black"/>
</g>
<g opacity="0.05">
<path opacity="0.5" d="M20.1057 23.4459V22.6905C16.3983 22.8989 13.1849 25.1233 11.5175 28.3191V32.0303C11.5175 27.3566 15.4446 23.5103 20.1057 23.4459Z" fill="black"/>
<path d="M15.8072 32.0303C13.9137 32.0303 12.3082 33.2555 11.736 34.957C12.6808 33.9414 14.0084 33.3086 15.4813 33.3086H20.1057V32.0303H15.8072Z" fill="black"/>
</g>
<g opacity="0.05">
<path opacity="0.5" d="M20.1057 23.4459V22.8497C16.3301 23.024 13.0724 25.3532 11.5175 28.6665V32.0303C11.5175 27.3566 15.4446 23.5103 20.1057 23.4459Z" fill="black"/>
<path d="M15.8072 32.0303C13.9781 32.0303 12.4181 33.1734 11.7979 34.784C12.7162 33.7229 14.0539 33.0534 15.5457 33.0534H20.1044V32.0303H15.8059H15.8072Z" fill="black"/>
</g>
<g opacity="0.05">
<path opacity="0.5" d="M20.1057 23.4459V23.0114C16.2442 23.1503 12.931 25.6109 11.5175 29.0695V32.0303C11.5175 27.3566 15.4446 23.5103 20.1057 23.4459Z" fill="black"/>
<path d="M15.8072 32.0303C14.0451 32.0303 12.5318 33.0926 11.8686 34.6109C12.7541 33.5044 14.1006 32.7983 15.6101 32.7983H20.1044V32.0315H15.8059L15.8072 32.0303Z" fill="black"/>
</g>
</g>
</g>
</g>
<defs>
<clipPath id="clip0_380_2">
<rect width="48" height="48" fill="white" transform="translate(0 0.000427246)"/>
</clipPath>
</defs>
</svg>
