<svg width="48" height="48" viewBox="0 0 48 48" fill="none" xmlns="http://www.w3.org/2000/svg">
<path d="M39.7418 16.2481C39.6608 16.162 39.5747 16.076 39.4886 15.9949C39.4025 15.9139 39.3215 15.8228 39.2355 15.7418C39.1494 15.6608 39.0684 15.5696 38.9823 15.4886C38.8962 15.4076 38.8152 15.3165 38.7291 15.2354C38.643 15.1544 38.562 15.0633 38.476 14.9823C38.3899 14.9013 38.3089 14.8101 38.2228 14.7291C38.1367 14.6481 38.0557 14.557 37.9696 14.476C40.4811 16.9442 41.9199 20.3019 41.9747 23.8228C41.9747 32.2126 33.4582 39.038 22.9874 39.038C17.1241 39.038 11.8785 36.8962 8.38989 33.5392L8.64306 33.7924L8.89622 34.0456L9.14939 34.2987L9.40255 34.5519L9.65571 34.8051L9.90888 35.0582L10.162 35.3114C13.6456 38.8101 19.0076 41.0633 25.0127 41.0633C35.4836 41.0633 44 34.238 44 25.8734C44 22.2987 42.4608 18.9114 39.7418 16.2481Z" fill="black"/>
<path d="M40.7089 23.8228C40.7089 31.524 32.7747 37.7671 22.9873 37.7671C13.2 37.7671 5.26584 31.524 5.26584 23.8228C5.26584 19.0481 8.30381 14.8304 12.9722 12.3291C17.6405 9.82783 20.5468 7.26581 22.9873 7.26581C25.4279 7.26581 27.5139 9.35695 33.0025 12.3291C37.6709 14.8304 40.7089 19.0481 40.7089 23.8228Z" fill="#FBF0DF"/>
<path d="M40.7088 23.8228C40.7064 22.8334 40.5701 21.849 40.3038 20.8962C38.9215 37.7569 18.3544 38.5671 10.2683 33.524C13.9033 36.3414 18.3889 37.8378 22.9873 37.7671C32.7595 37.7671 40.7088 31.5139 40.7088 23.8228Z" fill="#F6DECE"/>
<path d="M16.1671 11.4025C18.4304 10.0456 21.438 7.49872 24.3949 7.49366C23.9401 7.34662 23.4654 7.26979 22.9874 7.26581C21.762 7.26581 20.4557 7.89872 18.8101 8.85062C18.238 9.18479 17.6456 9.55441 17.0177 9.93922C15.838 10.6683 14.4861 11.4937 12.9671 12.319C8.14685 14.9266 5.26584 19.2253 5.26584 23.8228C5.26584 24.0253 5.26584 24.2278 5.26584 24.4253C8.33419 13.5848 13.9089 12.7595 16.1671 11.4025Z" fill="#FFFEFC"/>
<path fill-rule="evenodd" clip-rule="evenodd" d="M21.5291 8.54682C21.5362 9.74238 21.2852 10.9254 20.7932 12.015C20.3012 13.1047 19.5799 14.0754 18.6785 14.8607C18.5367 14.9873 18.6481 15.2304 18.8304 15.1595C20.5367 14.4962 22.8405 12.5114 21.8683 8.50632C21.8278 8.27847 21.5291 8.33923 21.5291 8.54682ZM22.6785 8.54682C23.298 9.55767 23.6916 10.6905 23.8323 11.8678C23.973 13.045 23.8575 14.2387 23.4937 15.3671C23.4329 15.5443 23.6506 15.6962 23.7721 15.5494C24.881 14.1316 25.8481 11.3164 22.9519 8.27847C22.805 8.14682 22.5772 8.34936 22.6785 8.52657V8.54682ZM24.0759 8.46075C25.0461 9.14761 25.8577 10.0345 26.4561 11.0617C27.0544 12.0889 27.4255 13.2324 27.5443 14.4152C27.5392 14.4578 27.5506 14.5008 27.5763 14.5351C27.602 14.5695 27.64 14.5927 27.6823 14.5999C27.7246 14.607 27.7681 14.5976 27.8037 14.5736C27.8392 14.5496 27.8642 14.5128 27.8734 14.4709C28.3392 12.7038 28.0759 9.69113 24.243 8.12657C24.0405 8.04556 23.9088 8.31898 24.0759 8.4405V8.46075ZM14.7291 13.7266C15.8832 13.3818 16.9517 12.7978 17.8651 12.0127C18.7784 11.2275 19.5162 10.2588 20.0304 9.16961C20.1215 8.98733 20.4101 9.05822 20.3645 9.26075C19.4886 13.3114 16.5569 14.1569 14.7342 14.0456C14.5418 14.0506 14.5468 13.7823 14.7291 13.7266Z" fill="#CCBEA7"/>
<path d="M22.9873 39.038C12.5165 39.038 4 32.2126 4 23.8228C4 18.7595 7.12911 14.0354 12.3696 11.2051C13.8886 10.3949 15.1899 9.57974 16.3494 8.86582C16.9873 8.47088 17.5899 8.10126 18.1721 7.75696C19.9494 6.7038 21.4683 6 22.9873 6C24.5063 6 25.8329 6.60759 27.4937 7.58987C28 7.87848 28.5063 8.1924 29.0481 8.53671C30.3089 9.31645 31.7316 10.1975 33.6051 11.2051C38.8456 14.0354 41.9747 18.7544 41.9747 23.8228C41.9747 32.2126 33.4582 39.038 22.9873 39.038ZM22.9873 7.26582C21.762 7.26582 20.4557 7.89873 18.8101 8.85063C18.238 9.18481 17.6456 9.55443 17.0177 9.93924C15.838 10.6684 14.4861 11.4937 12.9671 12.319C8.14683 14.9266 5.26582 19.2253 5.26582 23.8228C5.26582 31.5139 13.2152 37.7721 22.9873 37.7721C32.7595 37.7721 40.7088 31.5139 40.7088 23.8228C40.7088 19.2253 37.8278 14.9266 33.0025 12.3291C31.0886 11.3165 29.5949 10.3646 28.3848 9.61519C27.8329 9.27595 27.3266 8.96202 26.8658 8.68354C25.3316 7.77215 24.2127 7.26582 22.9873 7.26582Z" fill="black"/>
<path d="M26.5569 27.519C26.3295 28.4506 25.8117 29.2857 25.0785 29.9038C24.528 30.4374 23.8153 30.7724 23.0531 30.8557C22.2681 30.7856 21.5304 30.4498 20.962 29.9038C20.2362 29.2828 19.7258 28.448 19.5038 27.519C19.4964 27.4638 19.5018 27.4077 19.5195 27.3549C19.5371 27.3022 19.5667 27.2542 19.6058 27.2146C19.6449 27.175 19.6925 27.1449 19.745 27.1266C19.7976 27.1082 19.8536 27.1022 19.9088 27.1088H26.1569C26.2118 27.103 26.2672 27.1097 26.3191 27.1284C26.371 27.1471 26.418 27.1773 26.4565 27.2168C26.495 27.2563 26.524 27.304 26.5414 27.3563C26.5588 27.4087 26.5641 27.4643 26.5569 27.519Z" fill="#B71422"/>
<path d="M20.962 29.9443C21.5293 30.4906 22.2643 30.8296 23.0481 30.9063C23.8301 30.8285 24.5632 30.4896 25.1291 29.9443C25.3102 29.7756 25.4793 29.5945 25.6355 29.4025C25.3235 29.0487 24.9425 28.7624 24.5159 28.5612C24.0892 28.3601 23.6259 28.2484 23.1544 28.2329C22.65 28.2449 22.156 28.3792 21.715 28.6244C21.274 28.8696 20.8992 29.2183 20.6228 29.6405C20.7393 29.7468 20.8405 29.8481 20.962 29.9443Z" fill="#FF6164"/>
<path d="M21.043 29.5444C21.2941 29.2199 21.6154 28.9565 21.9829 28.7741C22.3503 28.5917 22.7543 28.495 23.1646 28.4912C23.9228 28.5136 24.6453 28.8188 25.1899 29.3469C25.3063 29.2203 25.4177 29.0887 25.5241 28.957C24.8799 28.3436 24.0286 27.9947 23.1392 27.9798C22.6639 27.9839 22.1954 28.0932 21.7673 28.2998C21.3393 28.5064 20.9622 28.8052 20.6633 29.1747C20.783 29.3048 20.9098 29.4282 21.043 29.5444Z" fill="black"/>
<path d="M23.0329 31.1595C22.1892 31.0856 21.3952 30.7288 20.7798 30.1469C19.996 29.484 19.4443 28.5882 19.2051 27.5899C19.1879 27.501 19.1908 27.4095 19.2136 27.3219C19.2364 27.2343 19.2784 27.1528 19.3367 27.0836C19.4061 26.9998 19.4937 26.933 19.5929 26.8882C19.6921 26.8435 19.8001 26.822 19.9089 26.8254H26.157C26.2656 26.8231 26.3733 26.8451 26.4723 26.8897C26.5712 26.9344 26.659 27.0007 26.7291 27.0836C26.7868 27.1531 26.8282 27.2347 26.8501 27.3223C26.872 27.41 26.8739 27.5014 26.8557 27.5899C26.6165 28.5882 26.0648 29.484 25.281 30.1469C24.6669 30.7277 23.8749 31.0845 23.0329 31.1595ZM19.9089 27.4127C19.8279 27.4127 19.8076 27.4481 19.8025 27.4583C20.0166 28.3239 20.5007 29.0989 21.1848 29.6709C21.6851 30.1638 22.3354 30.4756 23.0329 30.557C23.7286 30.4765 24.3783 30.1686 24.881 29.6811C25.563 29.1081 26.0452 28.3333 26.2582 27.4684C26.2472 27.4522 26.2319 27.4394 26.214 27.4313C26.1962 27.4233 26.1764 27.4204 26.157 27.4228L19.9089 27.4127Z" fill="black"/>
<path d="M30.6937 27.8329C32.3296 27.8329 33.6557 27.0531 33.6557 26.0911C33.6557 25.1292 32.3296 24.3494 30.6937 24.3494C29.0578 24.3494 27.7317 25.1292 27.7317 26.0911C27.7317 27.0531 29.0578 27.8329 30.6937 27.8329Z" fill="#FEBBD0"/>
<path d="M15.3671 27.8329C17.003 27.8329 18.3291 27.0531 18.3291 26.0911C18.3291 25.1292 17.003 24.3494 15.3671 24.3494C13.7312 24.3494 12.4051 25.1292 12.4051 26.0911C12.4051 27.0531 13.7312 27.8329 15.3671 27.8329Z" fill="#FEBBD0"/>
<path fill-rule="evenodd" clip-rule="evenodd" d="M16.7595 25.3924C17.3115 25.3934 17.8514 25.2307 18.3108 24.9247C18.7703 24.6188 19.1287 24.1834 19.3406 23.6737C19.5525 23.164 19.6085 22.6029 19.5014 22.0614C19.3943 21.5199 19.129 21.0223 18.7391 20.6316C18.3491 20.2409 17.852 19.9747 17.3107 19.8667C16.7694 19.7586 16.2082 19.8136 15.6981 20.0246C15.188 20.2356 14.752 20.5932 14.4452 21.0521C14.1384 21.511 13.9747 22.0506 13.9747 22.6026C13.9747 23.3416 14.2679 24.0504 14.79 24.5735C15.3121 25.0966 16.0204 25.3911 16.7595 25.3924ZM29.3012 25.3924C29.8539 25.3964 30.3952 25.2362 30.8567 24.9321C31.3181 24.628 31.6789 24.1937 31.8931 23.6843C32.1074 23.1749 32.1656 22.6133 32.0602 22.0708C31.9549 21.5283 31.6908 21.0293 31.3014 20.6371C30.9121 20.2449 30.415 19.9772 29.8733 19.8679C29.3315 19.7586 28.7696 19.8126 28.2586 20.0232C27.7476 20.2337 27.3107 20.5913 27.0032 21.0505C26.6958 21.5097 26.5316 22.0499 26.5316 22.6026C26.5303 23.3394 26.821 24.0467 27.3401 24.5696C27.8592 25.0925 28.5644 25.3884 29.3012 25.3924Z" fill="black"/>
<path fill-rule="evenodd" clip-rule="evenodd" d="M15.8988 22.7798C16.1063 22.7808 16.3094 22.7202 16.4824 22.6056C16.6554 22.4911 16.7906 22.3277 16.8707 22.1363C16.9508 21.9449 16.9723 21.734 16.9324 21.5303C16.8925 21.3267 16.7931 21.1395 16.6467 20.9924C16.5003 20.8453 16.3136 20.745 16.1102 20.7041C15.9067 20.6633 15.6957 20.6837 15.5039 20.7629C15.3121 20.8421 15.1481 20.9764 15.0327 21.1489C14.9173 21.3213 14.8557 21.5242 14.8557 21.7317C14.8557 22.0088 14.9654 22.2746 15.1609 22.471C15.3564 22.6674 15.6217 22.7784 15.8988 22.7798ZM28.4405 22.7798C28.648 22.7808 28.8512 22.7202 29.0242 22.6056C29.1972 22.4911 29.3323 22.3277 29.4124 22.1363C29.4925 21.9449 29.514 21.734 29.4742 21.5303C29.4343 21.3267 29.3349 21.1395 29.1885 20.9924C29.0421 20.8453 28.8554 20.745 28.6519 20.7041C28.4485 20.6633 28.2375 20.6837 28.0457 20.7629C27.8539 20.8421 27.6899 20.9764 27.5745 21.1489C27.4591 21.3213 27.3975 21.5242 27.3975 21.7317C27.3975 22.007 27.5058 22.2714 27.6991 22.4675C27.8924 22.6636 28.1551 22.7758 28.4304 22.7798H28.4405Z" fill="white"/>
</svg>
