<svg width="48" height="48" viewBox="0 0 48 48" fill="none" xmlns="http://www.w3.org/2000/svg">
<path d="M23.9465 44C23.3894 44 22.8695 43.853 22.3861 43.5957L17.4444 40.6929C16.7013 40.2886 17.0728 40.1416 17.2955 40.068C18.2988 39.7372 18.4848 39.6637 19.5252 39.0756C19.6365 39.0021 19.7849 39.0389 19.8962 39.1124L23.6868 41.354C23.8352 41.4275 24.0212 41.4275 24.1325 41.354L38.9578 32.8653C39.1067 32.7918 39.1809 32.6452 39.1809 32.4615V15.5207C39.1809 15.3369 39.1067 15.1899 38.9583 15.1164L24.1325 6.66435C23.9841 6.59084 23.7976 6.59084 23.6868 6.66435L8.86097 15.1164C8.71153 15.1899 8.63732 15.3737 8.63732 15.5207V32.4615C8.63732 32.608 8.71204 32.7918 8.86045 32.8653L12.9107 35.1804C15.1028 36.2831 16.4777 34.9966 16.4777 33.7107V16.9904C16.4777 16.7699 16.6632 16.5494 16.9234 16.5494H18.8187C19.0413 16.5494 19.2644 16.7331 19.2644 16.9904V33.7107C19.2644 36.6139 17.667 38.3042 14.8797 38.3042C14.0253 38.3042 13.3565 38.3042 11.4617 37.3853L7.55982 35.1804C7.08541 34.9079 6.69159 34.5167 6.41784 34.046C6.14408 33.5752 5.99999 33.0415 6 32.4982V15.5574C5.99995 15.014 6.14408 14.4801 6.41793 14.0093C6.69179 13.5384 7.08575 13.1472 7.56034 12.8747L22.3856 4.38595C23.3152 3.87135 24.5782 3.87135 25.5073 4.38595L40.3326 12.8747C40.8073 13.1471 41.2014 13.5384 41.4753 14.0092C41.7493 14.4801 41.8935 15.014 41.8935 15.5574V32.4982C41.8934 33.0416 41.7491 33.5754 41.4752 34.0462C41.2012 34.5169 40.8072 34.9081 40.3326 35.1804L25.5073 43.6692C25.0616 43.853 24.504 44 23.9465 44Z" fill="#5FA04E"/>
<path d="M28.5543 32.3512C22.0512 32.3512 20.714 29.4112 20.714 26.9122C20.714 26.6917 20.8995 26.4711 21.1597 26.4711H23.0921C23.3152 26.4711 23.5008 26.6182 23.5008 26.8387C23.7981 28.7863 24.6525 29.742 28.5914 29.742C31.7126 29.742 33.0498 29.0436 33.0498 27.39C33.0498 26.4349 32.6788 25.736 27.8108 25.2587C23.7605 24.8543 21.2344 23.9722 21.2344 20.7754C21.2344 17.7991 23.761 16.0353 27.9968 16.0353C32.753 16.0353 35.0935 17.6521 35.3914 21.1797C35.3914 21.29 35.3538 21.4002 35.2796 21.5105C35.2054 21.584 35.0941 21.6575 34.9822 21.6575H33.0127C32.9174 21.6544 32.8258 21.6203 32.752 21.5605C32.6782 21.5008 32.6262 21.4186 32.6041 21.3267C32.1584 19.3051 31.0067 18.644 27.9597 18.644C24.5411 18.644 24.1325 19.8202 24.1325 20.7019C24.1325 21.7678 24.6154 22.0986 29.2232 22.6862C33.7934 23.2743 35.9479 24.1197 35.9479 27.2798C35.9479 30.5139 33.2359 32.3512 28.5543 32.3512Z" fill="#5FA04E"/>
</svg>
