<svg width="48" height="48" viewBox="0 0 48 48" fill="none" xmlns="http://www.w3.org/2000/svg">
<g clip-path="url(#clip0_125_210)">
<path d="M24 4.03906C21.3788 4.03894 18.7833 4.55343 16.3616 5.55316C13.9399 6.55288 11.7394 8.01827 9.88587 9.86565C8.03232 11.713 6.56198 13.9062 5.55878 16.32C4.55559 18.7338 4.03918 21.3209 4.03906 23.9336C4.03867 26.5466 4.55469 29.1342 5.55766 31.5484C6.56062 33.9626 8.03089 36.1563 9.88448 38.0041C11.7381 39.8519 13.9387 41.3176 16.3607 42.3176C18.7826 43.3175 21.3785 43.8322 24 43.832C26.6215 43.8322 29.2174 43.3175 31.6393 42.3176C34.0613 41.3176 36.2619 39.8519 38.1155 38.0041C39.9691 36.1563 41.4394 33.9626 42.4423 31.5484C43.4453 29.1342 43.9613 26.5466 43.9609 23.9336C43.9608 21.3209 43.4444 18.7338 42.4412 16.32C41.438 13.9062 39.9677 11.713 38.1141 9.86565C36.2606 8.01827 34.0601 6.55288 31.6384 5.55316C29.2167 4.55343 26.6212 4.03894 24 4.03906ZM22.6211 13.0469H35.1797L22.5703 21.9102H31.1914L12.8203 34.8203L16.8086 25.9609L18.6328 21.9102L22.6211 13.0469Z" fill="#00CCB8"/>
</g>
<defs>
<clipPath id="clip0_125_210">
<rect width="48" height="48" fill="white"/>
</clipPath>
</defs>
</svg>
