<svg width="48" height="48" viewBox="0 0 48 48" fill="none" xmlns="http://www.w3.org/2000/svg">
<path d="M24 27.8205C26.2091 27.8205 28 26.0297 28 23.8205C28 21.6114 26.2091 19.8205 24 19.8205C21.7909 19.8205 20 21.6114 20 23.8205C20 26.0297 21.7909 27.8205 24 27.8205Z" fill="#149ECA"/>
<path d="M24 32.8205C35.0457 32.8205 44 28.7911 44 23.8205C44 18.8499 35.0457 14.8205 24 14.8205C12.9543 14.8205 4.00003 18.8499 4.00003 23.8205C4.00003 28.7911 12.9543 32.8205 24 32.8205Z" stroke="#149ECA" stroke-width="2"/>
<path d="M16.2058 28.3205C21.7287 37.8864 29.6954 43.6263 34.0001 41.141C38.3047 38.6557 37.3171 28.8864 31.7943 19.3205C26.2714 9.75466 18.3047 4.01472 14.0001 6.5C9.69542 8.98528 10.683 18.7547 16.2058 28.3205Z" stroke="#149ECA" stroke-width="2"/>
<path d="M16.2058 19.3205C10.683 28.8864 9.69542 38.6557 14.0001 41.141C18.3047 43.6263 26.2714 37.8864 31.7943 28.3205C37.3171 18.7547 38.3047 8.98528 34.0001 6.5C29.6954 4.01472 21.7287 9.75466 16.2058 19.3205Z" stroke="#149ECA" stroke-width="2"/>
</svg>
