<svg width="48" height="48" viewBox="0 0 48 48" xmlns="http://www.w3.org/2000/svg">
<path d="M31.348 27.6C31.492 26.412 31.6 25.224 31.6 24C31.6 22.776 31.492 21.588 31.348 20.4H37.432C37.72 21.552 37.9 22.758 37.9 24C37.9 25.242 37.72 26.448 37.432 27.6M28.162 37.608C29.242 35.61 30.07 33.45 30.646 31.2H35.956C34.2121 34.2029 31.4454 36.4776 28.162 37.608ZM27.712 27.6H19.288C19.108 26.412 19 25.224 19 24C19 22.776 19.108 21.57 19.288 20.4H27.712C27.874 21.57 28 22.776 28 24C28 25.224 27.874 26.412 27.712 27.6ZM23.5 38.328C22.006 36.168 20.8 33.774 20.062 31.2H26.938C26.2 33.774 24.994 36.168 23.5 38.328ZM16.3 16.8H11.044C12.7699 13.789 15.5346 11.5107 18.82 10.392C17.74 12.39 16.93 14.55 16.3 16.8ZM11.044 31.2H16.3C16.93 33.45 17.74 35.61 18.82 37.608C15.5415 36.477 12.7807 34.2019 11.044 31.2ZM9.568 27.6C9.28 26.448 9.1 25.242 9.1 24C9.1 22.758 9.28 21.552 9.568 20.4H15.652C15.508 21.588 15.4 22.776 15.4 24C15.4 25.224 15.508 26.412 15.652 27.6M23.5 9.654C24.994 11.814 26.2 14.226 26.938 16.8H20.062C20.8 14.226 22.006 11.814 23.5 9.654ZM35.956 16.8H30.646C30.0826 14.5706 29.2484 12.4186 28.162 10.392C31.474 11.526 34.228 13.812 35.956 16.8ZM23.5 6C13.546 6 5.5 14.1 5.5 24C5.5 28.7739 7.39642 33.3523 10.7721 36.7279C12.4435 38.3994 14.4278 39.7252 16.6117 40.6298C18.7956 41.5344 21.1362 42 23.5 42C28.2739 42 32.8523 40.1036 36.2279 36.7279C39.6036 33.3523 41.5 28.7739 41.5 24C41.5 21.6362 41.0344 19.2956 40.1298 17.1117C39.2252 14.9278 37.8994 12.9435 36.2279 11.2721C34.5565 9.60062 32.5722 8.27475 30.3883 7.37017C28.2044 6.46558 25.8638 6 23.5 6Z"/>
</svg>
