<svg width="48" height="48" viewBox="0 0 48 48" fill="none" xmlns="http://www.w3.org/2000/svg">
<path d="M19.9999 30L30.3799 24L19.9999 18V30ZM43.1199 14.34C43.3799 15.28 43.5599 16.54 43.6799 18.14C43.8199 19.74 43.8799 21.12 43.8799 22.32L43.9999 24C43.9999 28.38 43.6799 31.6 43.1199 33.66C42.6199 35.46 41.4599 36.62 39.6599 37.12C38.7199 37.38 36.9999 37.56 34.3599 37.68C31.7599 37.82 29.3799 37.88 27.1799 37.88L23.9999 38C15.6199 38 10.3999 37.68 8.33994 37.12C6.53994 36.62 5.37994 35.46 4.87994 33.66C4.61994 32.72 4.43994 31.46 4.31994 29.86C4.17994 28.26 4.11994 26.88 4.11994 25.68L3.99994 24C3.99994 19.62 4.31994 16.4 4.87994 14.34C5.37994 12.54 6.53994 11.38 8.33994 10.88C9.27994 10.62 10.9999 10.44 13.6399 10.32C16.2399 10.18 18.6199 10.12 20.8199 10.12L23.9999 10C32.3799 10 37.5999 10.32 39.6599 10.88C41.4599 11.38 42.6199 12.54 43.1199 14.34Z" fill="black"/>
</svg>
