<svg width="128" height="128" viewBox="0 0 128 128" fill="none" xmlns="http://www.w3.org/2000/svg">
<g filter="url(#filter0_i_1011_659)">
<path d="M107.941 12.0917C107.925 11.8658 107.662 11.7505 107.485 11.8918L72.9501 39.4573C69.8995 42.0588 67.9659 45.9627 67.661 50.1095L67.3631 79.2981C67.3607 79.5351 67.6346 79.6686 67.8198 79.5208L81.4051 68.677C83.0306 67.3796 83.9988 65.4295 84.0497 63.3504L84.1731 58.3114C84.275 54.1532 86.2113 50.253 89.4622 47.6582L106.481 34.0739C108.106 32.7765 109.074 30.8264 109.125 28.7473L107.941 12.0917Z" fill="#0593FA"/>
<path d="M69.602 115.722C69.6338 115.947 69.9041 116.043 70.0708 115.89L103.5 85.1533C106.441 82.2684 108.143 78.1288 108.158 73.8569L106.37 43.9041C106.356 43.6675 106.074 43.5534 105.899 43.7138L92.7408 55.8122C91.1679 57.2584 90.3154 59.3264 90.4122 61.4609L90.6468 66.6342C90.8404 70.9032 89.1354 75.0393 85.9895 77.9317L69.5208 93.0738C67.9479 94.52 67.0953 96.588 67.1922 98.7226L69.602 115.722Z" fill="#0593FA"/>
<path d="M19.6046 11.6179C19.6207 11.392 19.8836 11.2768 20.0606 11.4181L54.5953 38.9836C57.6459 41.585 59.5796 45.489 59.8844 49.6358L60.1823 78.8243C60.1847 79.0613 59.9108 79.1949 59.7256 79.047L46.1403 68.2033C44.5148 66.9058 43.5466 64.9557 43.4957 62.8766L43.3723 57.8377C43.2704 53.6794 41.3341 49.7793 38.0832 47.1844L21.0646 33.6002C19.4391 32.3027 18.471 30.3527 18.42 28.2735L19.6046 11.6179Z" fill="#0593FA"/>
<path d="M57.9434 115.249C57.9116 115.473 57.6413 115.57 57.4746 115.416L24.045 84.6797C21.1049 81.7948 19.4029 77.6551 19.3876 73.3832L21.1752 43.4305C21.1893 43.1939 21.4718 43.0798 21.6463 43.2402L34.8046 55.3385C36.3775 56.7847 37.23 58.8528 37.1332 60.9873L36.8986 66.1605C36.705 70.4296 38.41 74.5656 41.5559 77.4581L58.0246 92.6002C59.5976 94.0464 60.4501 96.1144 60.3533 98.2489L57.9434 115.249Z" fill="#0593FA"/>
</g>
<defs>
<filter id="filter0_i_1011_659" x="2.00012" y="11.0001" width="123.545" height="106.846" filterUnits="userSpaceOnUse" color-interpolation-filters="sRGB">
<feFlood flood-opacity="0" result="BackgroundImageFix"/>
<feBlend mode="normal" in="SourceGraphic" in2="BackgroundImageFix" result="shape"/>
<feColorMatrix in="SourceAlpha" type="matrix" values="0 0 0 0 0 0 0 0 0 0 0 0 0 0 0 0 0 0 127 0" result="hardAlpha"/>
<feOffset dy="1.5"/>
<feGaussianBlur stdDeviation="1.5"/>
<feComposite in2="hardAlpha" operator="arithmetic" k2="-1" k3="1"/>
<feColorMatrix type="matrix" values="0 0 0 0 0 0 0 0 0 0 0 0 0 0 0 0 0 0 0.25 0"/>
<feBlend mode="normal" in2="shape" result="effect1_innerShadow_1011_659"/>
</filter>
</defs>
</svg>
