<svg width="128" height="128" viewBox="0 0 128 128" fill="none" xmlns="http://www.w3.org/2000/svg">
<g filter="url(#filter0_i_1011_659)">
<path d="M107.97 12.5066C107.942 12.1049 107.474 11.9001 107.16 12.1513L72.95 39.4573C69.8994 42.0587 67.9657 45.9627 67.6609 50.1095L67.3677 78.8376C67.3634 79.2589 67.8503 79.4963 68.1796 79.2334L81.405 68.677C83.0305 67.3795 83.9986 65.4294 84.0496 63.3503L84.173 58.3114C84.2749 54.1531 86.2112 50.253 89.4621 47.6581L106.481 34.0739C108.106 32.7764 109.074 30.8264 109.125 28.7472L107.97 12.5066Z" fill="#3B82F6"/>
<path d="M69.5435 115.31C69.6 115.709 70.0805 115.881 70.3769 115.608L103.5 85.1531C106.44 82.2683 108.142 78.1286 108.158 73.8567L106.398 44.3636C106.372 43.943 105.87 43.7401 105.56 44.0253L92.7407 55.812C91.1678 57.2582 90.3152 59.3262 90.4121 61.4608L90.6467 66.634C90.8403 70.9031 89.1353 75.0391 85.9894 77.9315L69.5207 93.0736C67.9477 94.5198 67.0952 96.5878 67.192 98.7224L69.5435 115.31Z" fill="#3B82F6"/>
<path d="M19.575 12.0328C19.6036 11.6312 20.071 11.4263 20.3857 11.6775L54.5952 38.9835C57.6458 41.585 59.5794 45.4889 59.8843 49.6357L60.1775 78.3638C60.1818 78.7852 59.6949 79.0226 59.3656 78.7597L46.1402 68.2032C44.5147 66.9058 43.5465 64.9557 43.4956 62.8766L43.3722 57.8376C43.2703 53.6794 41.334 49.7792 38.0831 47.1843L21.0644 33.6001C19.439 32.3027 18.4708 30.3526 18.4199 28.2735L19.575 12.0328Z" fill="#3B82F6"/>
<path d="M58.0017 114.837C57.9452 115.235 57.4646 115.407 57.1682 115.135L24.0448 84.6795C21.1047 81.7946 19.4027 77.6549 19.3875 73.383L21.1476 43.89C21.1727 43.4694 21.675 43.2665 21.9852 43.5517L34.8045 55.3383C36.3774 56.7846 37.2299 58.8526 37.1331 60.9871L36.8985 66.1603C36.7049 70.4294 38.4099 74.5654 41.5557 77.4579L58.0245 92.6C59.5974 94.0462 60.4499 96.1142 60.3531 98.2488L58.0017 114.837Z" fill="#3B82F6"/>
</g>
<defs>
<filter id="filter0_i_1011_659" x="2" y="11" width="123.545" height="107.346" filterUnits="userSpaceOnUse" color-interpolation-filters="sRGB">
<feFlood flood-opacity="0" result="BackgroundImageFix"/>
<feBlend mode="normal" in="SourceGraphic" in2="BackgroundImageFix" result="shape"/>
<feColorMatrix in="SourceAlpha" type="matrix" values="0 0 0 0 0 0 0 0 0 0 0 0 0 0 0 0 0 0 127 0" result="hardAlpha"/>
<feOffset dy="2"/>
<feGaussianBlur stdDeviation="2"/>
<feComposite in2="hardAlpha" operator="arithmetic" k2="-1" k3="1"/>
<feColorMatrix type="matrix" values="0 0 0 0 0 0 0 0 0 0 0 0 0 0 0 0 0 0 0.25 0"/>
<feBlend mode="normal" in2="shape" result="effect1_innerShadow_1011_659"/>
</filter>
</defs>
</svg>
