<svg width="5" height="23" viewBox="0 0 5 23" xmlns="http://www.w3.org/2000/svg">
	<path d="M0 5C0 2.23858 2.23858 0 5 0V22C5 22.5523 4.55228 23 4 23C1.79086 23 0 21.2091 0 19V5Z"/>
	<mask id="mask" style="mask-type:alpha" maskUnits="userSpaceOnUse" x="0" y="0" width="5" height="23">
		<path d="M0 4C0 1.79086 1.79086 0 4 0H5V22C5 22.5523 4.55228 23 4 23V23C1.79086 23 0 21.2091 0 19V4Z"/>
	</mask>
	<g mask="url(#mask)">
		<path d="M1 21C1 20.4477 1.44772 20 2 20H5V23H1V21Z" fill="black" fill-opacity="0.25" />
	</g>
</svg>