<svg width="551" height="108" viewBox="0 0 551 108" fill="none" xmlns="http://www.w3.org/2000/svg">
  <rect width="80" height="80" rx="40" transform="matrix(-1 0 0 1 94 14)" fill="#2D2F34" />
  <path
    d="M54 2.16C54 0.967065 54.9679 -0.00450652 56.1598 0.043165C69.6966 0.584545 82.567 6.19949 92.1838 15.8162C102.311 25.9432 108 39.6783 108 54C108 68.3217 102.311 82.0568 92.1838 92.1838C82.567 101.801 69.6966 107.415 56.1598 107.957C54.9679 108.005 54 107.033 54 105.84C54 104.647 54.9678 103.685 56.1596 103.633C68.5502 103.094 80.3225 97.9356 89.1291 89.1291C98.4459 79.8123 103.68 67.1759 103.68 54C103.68 40.824 98.4459 28.1877 89.1291 18.8709C80.3225 10.0644 68.5502 4.9056 56.1596 4.36691C54.9678 4.3151 54 3.35293 54 2.16Z"
    fill="#2D2F34" />
  <path d="M535 54L107 54" stroke="#2D2F34" stroke-width="4" stroke-linecap="round" stroke-linejoin="round" />
  <path
    d="M519.25 54.75C519.25 63.4485 526.302 70.5 535 70.5C543.698 70.5 550.75 63.4485 550.75 54.75C550.75 46.0515 543.698 39 535 39C526.302 39 519.25 46.0515 519.25 54.75Z"
    fill="#1A1B20" />
  <path
    d="M519.25 54.75C519.25 63.4485 526.302 70.5 535 70.5C543.698 70.5 550.75 63.4485 550.75 54.75C550.75 46.0515 543.698 39 535 39C526.302 39 519.25 46.0515 519.25 54.75ZM542.635 54.75C542.635 58.9667 539.217 62.385 535 62.385C530.783 62.385 527.365 58.9667 527.365 54.75C527.365 50.5333 530.783 47.115 535 47.115C539.217 47.115 542.635 50.5333 542.635 54.75Z"
    fill="#2D2F34" />
  <circle cx="10.5" cy="10.5" r="10.5" transform="matrix(-1 0 0 1 545.5 44)" fill="#1A1B20" />
  <path
    d="M100 54C100 57.3137 102.686 60 106 60C109.314 60 112 57.3137 112 54C112 50.6863 109.314 48 106 48C102.686 48 100 50.6863 100 54Z"
    fill="#1A1B20" />
  <path
    d="M100 54C100 57.3137 102.686 60 106 60C109.314 60 112 57.3137 112 54C112 50.6863 109.314 48 106 48C102.686 48 100 50.6863 100 54ZM108.909 54C108.909 55.6064 107.606 56.9086 106 56.9086C104.394 56.9086 103.091 55.6064 103.091 54C103.091 52.3936 104.394 51.0914 106 51.0914C107.606 51.0914 108.909 52.3936 108.909 54Z"
    fill="#2D2F34" />
</svg>
