<svg width="98" height="108" viewBox="0 0 98 108" xmlns="http://www.w3.org/2000/svg" xmlns:xlink="http://www.w3.org/1999/xlink">
<path fill-rule="evenodd" clip-rule="evenodd" d="M40 2.15999C40 0.967056 40.9679 -0.00451551 42.1598 0.043156C55.6966 0.584536 68.567 6.19948 78.1838 15.8162C86.9443 24.5767 92.3838 36.0373 93.6923 48.242C96.182 48.9725 98 51.274 98 54C98 56.726 96.182 59.0275 93.6923 59.758C92.3838 71.9627 86.9442 83.4233 78.1838 92.1838C68.567 101.8 55.6966 107.415 42.1598 107.957C40.9679 108.005 40 107.033 40 105.84C40 104.647 40.9678 103.685 42.1596 103.633C54.5502 103.094 66.3225 97.9356 75.1291 89.1291C83.1637 81.0944 88.162 70.5911 89.3856 59.402C87.3817 58.4304 86 56.3765 86 54C86 51.6235 87.3817 49.5696 89.3856 48.598C88.162 37.4089 83.1637 26.9055 75.1291 18.8709C66.3225 10.0644 54.5502 4.90559 42.1596 4.36691C40.9678 4.31509 40 3.35293 40 2.15999ZM94.9087 54C94.9087 55.6064 93.6065 56.9086 92.0001 56.9086C90.3937 56.9086 89.0915 55.6064 89.0915 54C89.0915 52.3936 90.3937 51.0914 92.0001 51.0914C93.6065 51.0914 94.9087 52.3936 94.9087 54Z" fill="inherit"/>
</svg>
