<svg width="98" height="108" viewBox="0 0 98 108" fill="none" xmlns="http://www.w3.org/2000/svg">
<path d="M40 2.15999C40 0.967056 40.9679 -0.00451551 42.1598 0.043156C55.6966 0.584536 68.567 6.19948 78.1838 15.8162C88.3107 25.9432 94 39.6783 94 54C94 68.3217 88.3107 82.0568 78.1838 92.1838C68.567 101.8 55.6966 107.415 42.1598 107.957C40.9679 108.005 40 107.033 40 105.84C40 104.647 40.9678 103.685 42.1596 103.633C54.5502 103.094 66.3225 97.9356 75.1291 89.1291C84.4459 79.8122 89.68 67.1759 89.68 54C89.68 40.824 84.4459 28.1877 75.1291 18.8709C66.3225 10.0644 54.5502 4.90559 42.1596 4.36691C40.9678 4.31509 40 3.35293 40 2.15999Z" fill="#2D2F34"/>
<path d="M86 54C86 57.3137 88.6863 60 92 60C95.3137 60 98 57.3137 98 54C98 50.6863 95.3137 48 92 48C88.6863 48 86 50.6863 86 54Z" fill="#0E0E11"/>
<path d="M86 54C86 57.3137 88.6863 60 92 60C95.3137 60 98 57.3137 98 54C98 50.6863 95.3137 48 92 48C88.6863 48 86 50.6863 86 54ZM94.9086 54C94.9086 55.6064 93.6064 56.9086 92 56.9086C90.3936 56.9086 89.0914 55.6064 89.0914 54C89.0914 52.3936 90.3936 51.0914 92 51.0914C93.6064 51.0914 94.9086 52.3936 94.9086 54Z" fill="#2D2F34"/>
</svg>
