<svg width="551" height="108" viewBox="0 0 551 108" fill="none" xmlns="http://www.w3.org/2000/svg" xmlns:xlink="http://www.w3.org/1999/xlink">
<path d="M527 54L99 54" stroke="#2D2F34" stroke-width="4" stroke-linecap="round" stroke-linejoin="round"/>
<path d="M46 2.16C46 0.967065 46.9679 -0.00450652 48.1598 0.043165C61.6966 0.584545 74.567 6.19949 84.1838 15.8162C94.3107 25.9432 100 39.6783 100 54C100 68.3217 94.3107 82.0568 84.1838 92.1838C74.567 101.801 61.6966 107.415 48.1598 107.957C46.9679 108.005 46 107.033 46 105.84C46 104.647 46.9678 103.685 48.1596 103.633C60.5502 103.094 72.3225 97.9356 81.1291 89.1291C90.4459 79.8123 95.68 67.1759 95.68 54C95.68 40.824 90.4459 28.1877 81.1291 18.8709C72.3225 10.0644 60.5502 4.9056 48.1596 4.36691C46.9678 4.3151 46 3.35293 46 2.16Z" fill="#2D2F34"/>
<path d="M92 54C92 57.3137 94.6863 60 98 60C101.314 60 104 57.3137 104 54C104 50.6863 101.314 48 98 48C94.6863 48 92 50.6863 92 54Z" fill="#0E0E11"/>
<path d="M92 54C92 57.3137 94.6863 60 98 60C101.314 60 104 57.3137 104 54C104 50.6863 101.314 48 98 48C94.6863 48 92 50.6863 92 54ZM100.909 54C100.909 55.6064 99.6064 56.9086 98 56.9086C96.3936 56.9086 95.0914 55.6064 95.0914 54C95.0914 52.3936 96.3936 51.0914 98 51.0914C99.6064 51.0914 100.909 52.3936 100.909 54Z" fill="#2D2F34"/>
<path d="M513 55C513 62.732 519.268 69 527 69C534.732 69 541 62.732 541 55C541 47.268 534.732 41 527 41C519.268 41 513 47.268 513 55Z" fill="#0E0E11"/>
<path d="M513 55C513 62.732 519.268 69 527 69C534.732 69 541 62.732 541 55C541 47.268 534.732 41 527 41C519.268 41 513 47.268 513 55ZM533.787 55C533.787 58.7482 530.748 61.7867 527 61.7867C523.252 61.7867 520.213 58.7482 520.213 55C520.213 51.2518 523.252 48.2133 527 48.2133C530.748 48.2133 533.787 51.2518 533.787 55Z" fill="#2D2F34"/>
<defs>
</defs>
</svg>
