<svg width="28" height="28" viewBox="0 0 28 28" fill="none" xmlns="http://www.w3.org/2000/svg">
<path d="M0 14C0 21.732 6.26801 28 14 28C21.732 28 28 21.732 28 14C28 6.26801 21.732 0 14 0C6.26801 0 0 6.26801 0 14Z" fill="#0E0E11"/>
<path d="M0 14C0 21.732 6.26801 28 14 28C21.732 28 28 21.732 28 14C28 6.26801 21.732 0 14 0C6.26801 0 0 6.26801 0 14ZM20.7867 14C20.7867 17.7482 17.7482 20.7867 14 20.7867C10.2518 20.7867 7.21332 17.7482 7.21332 14C7.21332 10.2518 10.2518 7.21332 14 7.21332C17.7482 7.21332 20.7867 10.2518 20.7867 14Z" fill="#2D2F34"/>
<circle cx="7.5" cy="7.5" r="7.5" transform="matrix(-1 0 0 1 21.5 6.5)" fill="#0E0E11"/>
</svg>
