<svg width="49" height="48" viewBox="0 0 49 48" fill="none" xmlns="http://www.w3.org/2000/svg">
<path d="M30.8999 42.15L14.0499 25.35C13.8499 25.15 13.7086 24.9333 13.6259 24.7C13.5419 24.4667 13.4999 24.2167 13.4999 23.95C13.4999 23.6833 13.5419 23.4333 13.6259 23.2C13.7086 22.9667 13.8499 22.75 14.0499 22.55L30.8999 5.7C31.3666 5.23333 31.9499 5 32.6499 5C33.3499 5 33.9499 5.25 34.4499 5.75C34.9499 6.25 35.1999 6.83333 35.1999 7.5C35.1999 8.16667 34.9499 8.75 34.4499 9.25L19.7499 23.95L34.4499 38.65C34.9166 39.1167 35.1499 39.6913 35.1499 40.374C35.1499 41.058 34.8999 41.65 34.3999 42.15C33.8999 42.65 33.3166 42.9 32.6499 42.9C31.9833 42.9 31.3999 42.65 30.8999 42.15Z" fill="black"/>
</svg>
