<svg width="49" height="48" viewBox="0 0 49 48" fill="none" xmlns="http://www.w3.org/2000/svg">
<path d="M41.651 5L33.3655 7.40966L36.7201 5.13903C34.6023 5.61757 31.9267 6.55363 28.564 8.06441L23.0753 13.7866L25.0234 9.78941C23.14 10.837 21.1434 12.2104 19.2196 13.819L17.9424 19.0166L17.6676 15.1689C15.768 16.9149 13.9815 18.8549 12.5023 20.9C10.9478 23.0421 9.73291 25.3055 9.12423 27.5607L6.85118 26.0411C7.05488 27.9568 7.68458 29.622 8.71763 31.1498L6 30.3172C6.61757 32.2168 7.62719 33.4454 9.3344 34.4397C8.37813 37.1315 7.9295 39.9445 7.44773 42.7494L8.93508 43C10.6601 25.8066 22.8328 14.8456 33.8343 9.98907L34.3921 11.394C24.5546 15.7994 16.9077 23.2361 12.9064 33.9547C14.3695 33.9628 15.8003 33.7849 17.126 33.4454L17.5221 28.5227L18.581 33.0089C19.4621 32.6856 20.2704 32.2976 20.9898 31.8449L19.3166 28.3287L21.9679 31.1417C22.6146 30.6243 23.1481 30.0423 23.5523 29.4037C26.0096 25.5641 28.5801 21.7488 33.6403 18.5558L29.9462 17.2463L35.6127 17.4161C36.5342 16.9472 37.5042 16.3733 38.2398 15.8317L34.2223 15.5084L40.2606 14.0857C40.7295 13.6169 41.166 13.1238 41.562 12.6307C42.9605 10.8572 43.9062 9.01098 43.6799 7.33206C43.5748 6.49219 43.0736 5.70245 42.2572 5.26028C42.0551 5.1552 41.8369 5.06224 41.651 5Z" fill="black"/>
</svg>
