<svg width="49" height="48" viewBox="0 0 49 48" fill="none" xmlns="http://www.w3.org/2000/svg">
<path d="M24.4999 4C21.8735 4 19.2728 4.51732 16.8463 5.52241C14.4198 6.5275 12.215 8.00069 10.3578 9.85786C6.60708 13.6086 4.49994 18.6957 4.49994 24C4.49994 32.84 10.2399 40.34 18.1799 43C19.1799 43.16 19.4999 42.54 19.4999 42V38.62C13.9599 39.82 12.7799 35.94 12.7799 35.94C11.8599 33.62 10.5599 33 10.5599 33C8.73994 31.76 10.6999 31.8 10.6999 31.8C12.6999 31.94 13.7599 33.86 13.7599 33.86C15.4999 36.9 18.4399 36 19.5799 35.52C19.7599 34.22 20.2799 33.34 20.8399 32.84C16.3999 32.34 11.7399 30.62 11.7399 23C11.7399 20.78 12.4999 19 13.7999 17.58C13.5999 17.08 12.8999 15 13.9999 12.3C13.9999 12.3 15.6799 11.76 19.4999 14.34C21.0799 13.9 22.7999 13.68 24.4999 13.68C26.1999 13.68 27.9199 13.9 29.4999 14.34C33.3199 11.76 34.9999 12.3 34.9999 12.3C36.0999 15 35.3999 17.08 35.1999 17.58C36.4999 19 37.2599 20.78 37.2599 23C37.2599 30.64 32.5799 32.32 28.1199 32.82C28.8399 33.44 29.4999 34.66 29.4999 36.52V42C29.4999 42.54 29.8199 43.18 30.8399 43C38.7799 40.32 44.4999 32.84 44.4999 24C44.4999 21.3736 43.9826 18.7728 42.9775 16.3463C41.9724 13.9198 40.4992 11.715 38.6421 9.85786C36.7849 8.00069 34.5801 6.5275 32.1536 5.52241C29.7271 4.51732 27.1264 4 24.4999 4Z" fill="black"/>
</svg>
