<svg width="49" height="48" viewBox="0 0 49 48" fill="none" xmlns="http://www.w3.org/2000/svg">
<path d="M26.6252 3.00095C26.3046 3.01159 25.9893 3.08556 25.6974 3.21861C25.4054 3.35165 25.1428 3.54114 24.9244 3.77615L15.3565 14.0201L8.5355 21.3225C7.54208 22.3803 6.80937 23.6554 6.39574 25.0463C6.3071 25.3451 6.23326 25.6482 6.17451 25.9543C5.90932 27.3393 5.94675 28.7654 6.28424 30.1347C6.43425 30.7524 6.64102 31.3549 6.90192 31.9346C7.44298 33.1389 8.20613 34.2305 9.15141 35.1522L16.7211 42.5732L16.7901 42.6405C20.7688 46.4722 27.1473 46.4156 31.0605 42.5095L35.3011 38.276C36.2568 37.3203 36.2568 35.7734 35.3064 34.8159C35.0802 34.5885 34.8114 34.408 34.5153 34.2846C34.2192 34.1612 33.9017 34.0975 33.581 34.097C33.2603 34.0965 32.9426 34.1593 32.6461 34.2817C32.3497 34.4042 32.0803 34.5839 31.8534 34.8106L27.6128 39.0441C26.6241 40.02 25.2944 40.5727 23.9053 40.5852C22.5162 40.5978 21.1767 40.0692 20.1706 39.1114L20.1352 39.0778L12.5672 31.6567C11.4133 30.524 10.8469 29.0568 10.8894 27.6516C10.8978 27.3399 10.937 27.0299 11.0062 26.7259C11.1841 25.9549 11.562 25.2444 12.1018 24.6658L18.921 17.3616C20.7935 15.3546 24.5917 15.1139 26.7615 16.8696L32.9578 21.88C34.0073 22.7296 35.5435 22.565 36.3913 21.5137C36.7977 21.0087 36.9873 20.3631 36.9187 19.7186C36.85 19.074 36.5286 18.4829 36.025 18.0748L29.8304 13.0644C28.4146 11.9193 26.7049 11.2149 24.9209 10.937L28.4871 7.11764C28.8159 6.76417 29.0328 6.32145 29.1108 5.84507C29.1887 5.36869 29.1242 4.8799 28.9253 4.44008C28.7264 4.00025 28.4019 3.62901 27.9927 3.37297C27.5835 3.11693 27.1078 2.98751 26.6252 3.00095ZM21.5528 25.6817C21.2318 25.6817 20.9139 25.745 20.6173 25.868C20.3208 25.9909 20.0514 26.1711 19.8245 26.3983C19.5977 26.6255 19.4178 26.8952 19.2953 27.1919C19.1728 27.4886 19.1099 27.8066 19.1104 28.1276C19.1099 28.4487 19.1728 28.7667 19.2953 29.0634C19.4178 29.3601 19.5977 29.6298 19.8245 29.857C20.0514 30.0841 20.3208 30.2644 20.6173 30.3873C20.9139 30.5103 21.2318 30.5736 21.5528 30.5736H39.5576C39.8786 30.5736 40.1965 30.5103 40.4931 30.3873C40.7896 30.2644 41.059 30.0841 41.2859 29.857C41.5127 29.6298 41.6926 29.3601 41.8151 29.0634C41.9376 28.7667 42.0005 28.4487 42 28.1276C42.0005 27.8066 41.9376 27.4886 41.8151 27.1919C41.6926 26.8952 41.5127 26.6255 41.2859 26.3983C41.059 26.1711 40.7896 25.9909 40.4931 25.868C40.1965 25.745 39.8786 25.6817 39.5576 25.6817H21.5528Z" fill="black"/>
</svg>
