<svg width="49" height="48" viewBox="0 0 49 48" fill="none" xmlns="http://www.w3.org/2000/svg">
<path d="M6 8.5785C6 7.15425 7.1835 6 8.64375 6H39.3563C40.8165 6 42 7.15425 42 8.5785V39.4215C42 40.8457 40.8165 42 39.3563 42H8.64375C7.1835 42 6 40.8457 6 39.4215V8.5785ZM17.1217 36.1365V19.8802H11.7195V36.1365H17.1217ZM14.4218 17.6595C16.305 17.6595 17.4772 16.413 17.4772 14.8515C17.4435 13.2562 16.3073 12.0435 14.4578 12.0435C12.6083 12.0435 11.4 13.2585 11.4 14.8515C11.4 16.413 12.5722 17.6595 14.3857 17.6595H14.4218ZM25.4648 36.1365V27.0578C25.4648 26.5718 25.5007 26.0857 25.6448 25.7393C26.034 24.7695 26.9228 23.7638 28.4167 23.7638C30.372 23.7638 31.1528 25.2533 31.1528 27.4403V36.1365H36.555V26.8125C36.555 21.8175 33.891 19.4955 30.336 19.4955C27.4695 19.4955 26.1847 21.0705 25.4648 22.1798V22.236H25.4288C25.4407 22.2172 25.4527 22.1985 25.4648 22.1798V19.8802H20.0647C20.1322 21.4058 20.0647 36.1365 20.0647 36.1365H25.4648Z" fill="black"/>
</svg>
