<svg width="80" height="80" viewBox="0 0 80 80" fill="none" xmlns="http://www.w3.org/2000/svg">
<g filter="url(#filter0_i_1011_665)">
<path d="M67.5068 8.17234C67.4782 7.77068 67.0109 7.56583 66.6962 7.81703L45.5939 24.6608C43.6873 26.2867 42.4787 28.7267 42.2882 31.3184L42.109 48.8788C42.1047 49.3002 42.5916 49.5375 42.9209 49.2747L50.8783 42.9231C51.8942 42.1122 52.4993 40.8934 52.5311 39.594L52.6083 36.4446C52.672 33.8457 53.8822 31.4081 55.914 29.7863L66.5506 21.2962C67.5665 20.4853 68.1716 19.2665 68.2035 17.967L67.5068 8.17234Z" fill="#3B82F6"/>
<path d="M43.4146 71.7159C43.4711 72.1146 43.9517 72.2863 44.2481 72.0138L64.6877 53.2207C66.5253 51.4177 67.589 48.8304 67.5985 46.1604L66.522 28.1213C66.4969 27.7007 65.9946 27.4978 65.6844 27.783L57.9629 34.8825C56.9799 35.7864 56.447 37.0789 56.5075 38.413L56.6542 41.6462C56.7752 44.3144 55.7096 46.8994 53.7434 48.7072L43.4504 58.171C42.4673 59.0749 41.9345 60.3674 41.995 61.7015L43.4146 71.7159Z" fill="#3B82F6"/>
<path d="M12.209 7.87624C12.2376 7.47458 12.705 7.26974 13.0197 7.52094L34.1219 24.3647C36.0285 25.9906 37.2371 28.4306 37.4276 31.0223L37.6068 48.5827C37.6111 49.0041 37.1242 49.2415 36.7949 48.9786L28.8375 42.627C27.8216 41.8161 27.2165 40.5973 27.1847 39.2979L27.1075 36.1485C27.0439 33.5496 25.8337 31.112 23.8019 29.4902L13.1652 21.0001C12.1493 20.1892 11.5442 18.9704 11.5124 17.6709L12.209 7.87624Z" fill="#3B82F6"/>
<path d="M36.301 71.4199C36.2444 71.8186 35.7639 71.9903 35.4675 71.7178L15.0279 52.9247C13.1903 51.1217 12.1266 48.5343 12.1171 45.8644L13.1936 27.8253C13.2187 27.4046 13.7209 27.2018 14.0311 27.487L21.7526 34.5865C22.7357 35.4904 23.2685 36.7829 23.208 38.117L23.0614 41.3502C22.9404 44.0184 24.006 46.6034 25.9722 48.4112L36.2652 57.875C37.2482 58.7789 37.7811 60.0714 37.7206 61.4055L36.301 71.4199Z" fill="#3B82F6"/>
</g>
<defs>
<filter id="filter0_i_1011_665" x="1.25" y="6.87501" width="77.2158" height="67.8411" filterUnits="userSpaceOnUse" color-interpolation-filters="sRGB">
<feFlood flood-opacity="0" result="BackgroundImageFix"/>
<feBlend mode="normal" in="SourceGraphic" in2="BackgroundImageFix" result="shape"/>
<feColorMatrix in="SourceAlpha" type="matrix" values="0 0 0 0 0 0 0 0 0 0 0 0 0 0 0 0 0 0 127 0" result="hardAlpha"/>
<feOffset dy="2"/>
<feGaussianBlur stdDeviation="2"/>
<feComposite in2="hardAlpha" operator="arithmetic" k2="-1" k3="1"/>
<feColorMatrix type="matrix" values="0 0 0 0 0 0 0 0 0 0 0 0 0 0 0 0 0 0 0.25 0"/>
<feBlend mode="normal" in2="shape" result="effect1_innerShadow_1011_665"/>
</filter>
</defs>
</svg>
