<svg width="48" height="48" viewBox="0 0 48 48" fill="none" xmlns="http://www.w3.org/2000/svg">
<path d="M9.5063 24.7008L15.3201 27.2456L32.0745 18.1054L21.9694 29.8948L36.4534 36.4901C36.7011 36.5986 36.9713 36.6459 37.2412 36.6279C37.511 36.6099 37.7725 36.5272 38.0036 36.3868C38.2347 36.2463 38.4286 36.0523 38.5689 35.8212C38.7092 35.59 38.7918 35.3284 38.8096 35.0586L40.4938 9.79562C40.5126 9.50321 40.4549 9.21096 40.3264 8.94763C40.1979 8.68429 40.0031 8.45894 39.7611 8.29375C39.5191 8.12856 39.2383 8.02923 38.9462 8.00553C38.6542 7.98183 38.361 8.03458 38.0955 8.15858L9.46419 21.6322C9.17213 21.7707 8.92602 21.9903 8.75512 22.2646C8.58422 22.539 8.49572 22.8567 8.50016 23.18C8.50459 23.5032 8.60177 23.8184 8.78014 24.088C8.9585 24.3576 9.21055 24.5703 9.5063 24.7008ZM18.601 40L26.6447 36.0994L18.601 32.347V40Z" fill="black"/>
</svg>
