<svg width="49" height="48" viewBox="0 0 49 48" fill="none" xmlns="http://www.w3.org/2000/svg">
<path d="M10.0063 24.7008L15.8201 27.2456L32.5745 18.1054L22.4694 29.8948L36.9534 36.4901C37.2011 36.5986 37.4713 36.6459 37.7412 36.6279C38.011 36.6099 38.2725 36.5272 38.5036 36.3868C38.7347 36.2463 38.9286 36.0523 39.0689 35.8212C39.2092 35.59 39.2918 35.3284 39.3096 35.0586L40.9938 9.79562C41.0126 9.50321 40.9549 9.21096 40.8264 8.94763C40.6979 8.68429 40.5031 8.45894 40.2611 8.29375C40.0191 8.12856 39.7383 8.02923 39.4462 8.00553C39.1542 7.98183 38.861 8.03458 38.5955 8.15858L9.96419 21.6322C9.67213 21.7707 9.42602 21.9903 9.25512 22.2646C9.08422 22.539 8.99572 22.8567 9.00016 23.18C9.00459 23.5032 9.10177 23.8184 9.28014 24.088C9.4585 24.3576 9.71055 24.5703 10.0063 24.7008V24.7008ZM19.101 40L27.1447 36.0994L19.101 32.347V40Z" fill="black"/>
</svg>
