<svg width="48" height="48" viewBox="0 0 48 48" fill="none" xmlns="http://www.w3.org/2000/svg">
<path d="M40.0938 4H7.90625C5.74889 4 4 5.74889 4 7.90625V40.0938C4 42.2511 5.74889 44 7.90625 44H40.0938C42.2511 44 44 42.2511 44 40.0938V7.90625C44 5.74889 42.2511 4 40.0938 4Z" fill="#3178C6"/>
<path d="M40.0938 4H7.90625C5.74889 4 4 5.74889 4 7.90625V40.0938C4 42.2511 5.74889 44 7.90625 44H40.0938C42.2511 44 44 42.2511 44 40.0938V7.90625C44 5.74889 42.2511 4 40.0938 4Z" fill="#3178C6"/>
<path fill-rule="evenodd" clip-rule="evenodd" d="M28.7609 33.83V37.741C29.3966 38.067 30.1486 38.3113 31.0167 38.4743C31.8848 38.6373 32.7998 38.7188 33.7616 38.7188C34.6991 38.7188 35.5895 38.6291 36.4332 38.4498C37.2769 38.2706 38.0166 37.9752 38.6524 37.5638C39.2882 37.1523 39.7916 36.6145 40.1624 35.9505C40.5333 35.2864 40.7188 34.4655 40.7188 33.4878C40.7188 32.7789 40.6128 32.1577 40.4009 31.624C40.1889 31.0903 39.8833 30.6157 39.4838 30.2002C39.0845 29.7846 38.6055 29.4118 38.0472 29.0818C37.4888 28.7518 36.8591 28.4402 36.1581 28.1469C35.6446 27.935 35.1841 27.7293 34.7765 27.5297C34.3689 27.33 34.0225 27.1263 33.7372 26.9186C33.4519 26.7108 33.2318 26.4908 33.077 26.2586C32.9221 26.0263 32.8446 25.7636 32.8446 25.4702C32.8446 25.2014 32.9139 24.959 33.0525 24.743C33.1911 24.5271 33.3867 24.3418 33.6394 24.187C33.8921 24.0322 34.2018 23.912 34.5686 23.8264C34.9355 23.7409 35.343 23.6981 35.7913 23.6981C36.1173 23.6981 36.4617 23.7226 36.8245 23.7714C37.1872 23.8203 37.552 23.8957 37.9188 23.9975C38.2856 24.0994 38.6422 24.2277 38.9887 24.3825C39.3351 24.5373 39.655 24.7166 39.9484 24.9203V21.2659C39.3534 21.0378 38.7034 20.8687 37.9983 20.7587C37.2932 20.6487 36.4841 20.5938 35.5712 20.5938C34.642 20.5938 33.7616 20.6936 32.9302 20.8932C32.0988 21.0928 31.3673 21.4045 30.7355 21.8281C30.1037 22.2519 29.6045 22.7916 29.2377 23.4476C28.8709 24.1034 28.6875 24.8877 28.6875 25.8002C28.6875 26.9654 29.0237 27.9595 29.6962 28.7824C30.3687 29.6053 31.3896 30.302 32.7591 30.8723C33.297 31.0923 33.7984 31.3082 34.263 31.5201C34.7276 31.732 35.1291 31.952 35.4673 32.1801C35.8055 32.4082 36.0725 32.6567 36.2682 32.9256C36.4638 33.1945 36.5616 33.5 36.5616 33.8423C36.5616 34.0948 36.5005 34.3291 36.3782 34.545C36.2559 34.7609 36.0705 34.9483 35.8219 35.1072C35.5733 35.2661 35.2635 35.3903 34.8927 35.4799C34.5217 35.5696 34.0877 35.6144 33.5905 35.6144C32.7427 35.6144 31.9032 35.4657 31.0717 35.1683C30.2403 34.8709 29.47 34.4248 28.7609 33.83ZM22.1859 24.1939H27.2031V20.9844H13.2188V24.1939H18.2114V38.4844H22.1859V24.1939Z" fill="white"/>
</svg>
