<svg width="48" height="48" viewBox="0 0 48 48" fill="none" xmlns="http://www.w3.org/2000/svg">
<path d="M23.5748 4.00033C21.941 4.00792 20.3808 4.14726 19.008 4.39018C14.9639 5.10464 14.2296 6.60009 14.2296 9.35794V13.0002H23.7864V14.2143H14.2296H10.643C7.86553 14.2143 5.43349 15.8838 4.67278 19.0596C3.79531 22.6998 3.75639 24.9714 4.67278 28.7723C5.35211 31.6016 6.97445 33.6176 9.75193 33.6176H13.0378V29.2513C13.0378 26.0969 15.767 23.3145 19.008 23.3145H28.5537C31.2109 23.3145 33.3321 21.1266 33.3321 18.4581V9.35794C33.3321 6.76799 31.1472 4.82243 28.5537 4.39018C26.912 4.11689 25.2086 3.99274 23.5748 4.00033ZM18.4065 6.92975C19.3937 6.92975 20.1998 7.74906 20.1998 8.75647C20.1998 9.7603 19.3937 10.572 18.4065 10.572C17.4158 10.572 16.6132 9.7603 16.6132 8.75647C16.6132 7.74906 17.4158 6.92975 18.4065 6.92975Z" fill="url(#paint0_linear_126_217)"/>
<path d="M34.5239 14.2143V18.4581C34.5239 21.7482 31.7345 24.5174 28.5537 24.5174H19.008C16.3933 24.5174 14.2296 26.7553 14.2296 29.3738V38.474C14.2296 41.0639 16.4818 42.5873 19.008 43.3304C22.0332 44.2199 24.9341 44.3806 28.5537 43.3304C30.9597 42.6337 33.3321 41.2318 33.3321 38.474V34.8317H23.7864V33.6176H33.3321H38.1105C40.888 33.6176 41.923 31.6802 42.8889 28.7723C43.8867 25.7787 43.8443 22.8998 42.8889 19.0596C42.2025 16.2946 40.8916 14.2143 38.1105 14.2143H34.5239ZM29.1552 37.2599C30.1459 37.2599 30.9485 38.0716 30.9485 39.0754C30.9485 40.0828 30.1459 40.9022 29.1552 40.9022C28.168 40.9022 27.3619 40.0828 27.3619 39.0754C27.3619 38.0716 28.168 37.2599 29.1552 37.2599Z" fill="url(#paint1_linear_126_217)"/>
<defs>
<linearGradient id="paint0_linear_126_217" x1="4" y1="4" x2="26.037" y2="22.7786" gradientUnits="userSpaceOnUse">
<stop stop-color="#5A9FD4"/>
<stop offset="1" stop-color="#306998"/>
</linearGradient>
<linearGradient id="paint1_linear_126_217" x1="28.9255" y1="38.7692" x2="21.0195" y2="27.6905" gradientUnits="userSpaceOnUse">
<stop stop-color="#FFD43B"/>
<stop offset="1" stop-color="#FFE873"/>
</linearGradient>
</defs>
</svg>
