<svg width="48" height="48" viewBox="0 0 48 48" fill="none" xmlns="http://www.w3.org/2000/svg">
<mask id="mask0_114_188" style="mask-type:luminance" maskUnits="userSpaceOnUse" x="4" y="10" width="40" height="24">
<path d="M4 10H44V34H4V10Z" fill="white"/>
</mask>
<g mask="url(#mask0_114_188)">
<path fill-rule="evenodd" clip-rule="evenodd" d="M24 10C18.6667 10 15.3333 12.6667 14 18C16 15.3333 18.3333 14.3333 21 15C22.5215 15.38 23.6089 16.4844 24.8126 17.7059C26.7733 19.6963 29.043 22 34 22C39.3333 22 42.6667 19.3333 44 14C42 16.6667 39.6667 17.6667 37 17C35.4785 16.62 34.3911 15.5156 33.1874 14.2941C31.2267 12.3037 28.957 10 24 10ZM14 22C8.66667 22 5.33333 24.6667 4 30C6 27.3333 8.33333 26.3333 11 27C12.5215 27.3807 13.6089 28.4844 14.8126 29.7059C16.7733 31.6963 19.043 34 24 34C29.3333 34 32.6667 31.3333 34 26C32 28.6667 29.6667 29.6667 27 29C25.4785 28.62 24.3911 27.5156 23.1874 26.2941C21.2267 24.3037 18.957 22 14 22Z" fill="#38BDF8"/>
</g>
</svg>
