<svg width="48" height="48" viewBox="0 0 48 48" fill="none" xmlns="http://www.w3.org/2000/svg">
<path d="M18.3138 38.0697C16.5067 36.4179 15.9792 32.9471 16.7321 30.4326C18.0375 32.0179 19.8463 32.5201 21.7198 32.8036C24.6121 33.2411 27.4527 33.0774 30.1395 31.7555C30.4469 31.6041 30.7309 31.4029 31.0668 31.199C31.3189 31.9305 31.3845 32.6688 31.2964 33.4204C31.0823 35.2507 30.1714 36.6646 28.7227 37.7364C28.1434 38.1651 27.5304 38.5483 26.932 38.9525C25.0939 40.1949 24.5966 41.6516 25.2873 43.7705C25.3037 43.8224 25.3184 43.874 25.3555 44C24.417 43.5798 23.7315 42.9682 23.2092 42.1641C22.6575 41.3156 22.395 40.3768 22.3812 39.3611C22.3742 38.8668 22.3742 38.368 22.3078 37.8807C22.1455 36.6926 21.5877 36.1606 20.537 36.13C19.4586 36.0985 18.6056 36.7652 18.3794 37.8151C18.3621 37.8956 18.3371 37.9752 18.312 38.0688L18.3138 38.0697Z" fill="#1E1E1E"/>
<path d="M18.3138 38.0697C16.5067 36.4179 15.9792 32.9471 16.7321 30.4326C18.0375 32.0179 19.8463 32.5201 21.7198 32.8036C24.6121 33.2411 27.4527 33.0774 30.1395 31.7555C30.4469 31.6041 30.7309 31.4029 31.0668 31.199C31.3189 31.9305 31.3845 32.6688 31.2964 33.4204C31.0823 35.2507 30.1714 36.6646 28.7227 37.7364C28.1434 38.1651 27.5304 38.5483 26.932 38.9525C25.0939 40.1949 24.5966 41.6516 25.2873 43.7705C25.3037 43.8224 25.3184 43.874 25.3555 44C24.417 43.5798 23.7315 42.9682 23.2092 42.1641C22.6575 41.3156 22.395 40.3768 22.3812 39.3611C22.3742 38.8668 22.3742 38.368 22.3078 37.8807C22.1455 36.6926 21.5877 36.1606 20.537 36.13C19.4586 36.0985 18.6056 36.7652 18.3794 37.8151C18.3621 37.8956 18.3371 37.9752 18.312 38.0688L18.3138 38.0697Z" fill="url(#paint0_linear_127_226)"/>
<path d="M8 30.0137C8 30.0137 13.351 27.407 18.7169 27.407L22.7627 14.8861C22.9141 14.2806 23.3564 13.8691 23.8557 13.8691C24.355 13.8691 24.7972 14.2806 24.9487 14.8861L28.9944 27.407C35.3496 27.407 39.7113 30.0137 39.7113 30.0137C39.7113 30.0137 30.6222 5.25321 30.6045 5.20353C30.3436 4.47148 29.9032 4 29.3095 4H18.4028C17.809 4 17.3864 4.47148 17.1078 5.20353C17.0881 5.25227 8 30.0137 8 30.0137Z" fill="#FFFFFF"/>
<defs>
<linearGradient id="paint0_linear_127_226" x1="16.4001" y1="44" x2="33.8486" y2="35.7558" gradientUnits="userSpaceOnUse">
<stop stop-color="#D83333"/>
<stop offset="1" stop-color="#F041FF"/>
</linearGradient>
</defs>
</svg>
