<svg width="49" height="48" viewBox="0 0 49 48" fill="none" xmlns="http://www.w3.org/2000/svg">
<path d="M20.4999 30L30.8799 24L20.4999 18V30ZM43.6199 14.34C43.8799 15.28 44.0599 16.54 44.1799 18.14C44.3199 19.74 44.3799 21.12 44.3799 22.32L44.4999 24C44.4999 28.38 44.1799 31.6 43.6199 33.66C43.1199 35.46 41.9599 36.62 40.1599 37.12C39.2199 37.38 37.4999 37.56 34.8599 37.68C32.2599 37.82 29.8799 37.88 27.6799 37.88L24.4999 38C16.1199 38 10.8999 37.68 8.83994 37.12C7.03994 36.62 5.87994 35.46 5.37994 33.66C5.11994 32.72 4.93994 31.46 4.81994 29.86C4.67994 28.26 4.61994 26.88 4.61994 25.68L4.49994 24C4.49994 19.62 4.81994 16.4 5.37994 14.34C5.87994 12.54 7.03994 11.38 8.83994 10.88C9.77994 10.62 11.4999 10.44 14.1399 10.32C16.7399 10.18 19.1199 10.12 21.3199 10.12L24.4999 10C32.8799 10 38.0999 10.32 40.1599 10.88C41.9599 11.38 43.1199 12.54 43.6199 14.34Z" fill="black"/>
</svg>
